<?xml version="1.0" encoding="utf-8"?>
<!-- Generator: Adobe Illustrator 27.5.0, SVG Export Plug-In . SVG Version: 6.00 Build 0)  -->
<svg version="1.1" id="Слой_2" xmlns="http://www.w3.org/2000/svg" xmlns:xlink="http://www.w3.org/1999/xlink" x="0px" y="0px"
	 viewBox="0 0 3600 2000" style="enable-background:new 0 0 3600 2000;" xml:space="preserve">
<g>
	<g>
		<path style="fill:#EBF2F9;" d="M2904.867,1807.092c0,0,343.133,26.908,448.811-174.006
			c157.129-298.735-148.26-539.536-369.799-496.187c-482.74,94.461-366.496-947.634-1141.23-734.954
			c-217.844,59.803-806.433-295.453-970.589,274.17c-39.035,135.453-177.336,150.37-378.104,236.318
			c-392.921,168.208-213.262,897.497,67.496,900.359C842.208,1815.656,2904.867,1807.092,2904.867,1807.092z"/>
		<path style="fill:#283250;" d="M3336.594,1813.857H321.075c-1.48,0-2.69-1.211-2.69-2.691l0,0c0-1.479,1.21-2.69,2.69-2.69
			h3015.519c1.48,0,2.691,1.211,2.691,2.69l0,0C3339.285,1812.646,3338.074,1813.857,3336.594,1813.857z"/>
	</g>
	<path style="fill:#ADCBF9;" d="M1431.505,836.913l-39.582-0.909c12.718,16.482,15.573,31.666,7.656,44.513
		c-7.916,13.107-26.864,23.879-55.155,32.054c21.414-56.971,32.184-117.058,32.184-178.701c0-69.041-13.496-136.006-40.23-198.947
		c-25.695-60.865-62.552-115.63-109.531-162.48c-46.979-46.979-101.615-83.835-162.48-109.661
		c-63.071-26.605-130.035-40.101-198.946-40.101c-69.041,0-136.006,13.497-199.077,40.101c-7.527,3.245-15.054,6.618-22.321,10.123
		c-0.022,0.011-0.045,0.022-0.067,0.033c-21.985-6.709-43.4-12.208-64.063-16.395c-104.3-21.166-178.318-6.538-208.384,41.191
		c-28.611,45.393-13.036,113.723,43.739,193.417c-0.007,0.013-0.014,0.025-0.021,0.038c-7.657,14.146-14.535,28.681-20.894,43.735
		c-4.801,11.29-9.084,22.581-12.978,34.131c-106.676,6.359-163.777,25.133-184.541,59.135
		c-24.139,39.582,8.824,92.704,114.332,144.354c14.535,7.137,30.108,14.146,46.46,21.153c5.451,47.888,17.779,94.477,36.726,139.12
		c25.696,60.864,62.552,115.63,109.531,162.609c46.98,46.849,101.615,83.706,162.48,109.531
		c63.071,26.604,130.036,40.101,199.077,40.101c68.911,0,135.876-13.497,198.946-40.101
		c60.865-25.825,115.501-62.683,162.48-109.531c45.682-45.682,81.889-98.89,107.455-157.808
		c52.04-10.771,86.301-27.642,99.927-49.964C1443.705,872.212,1442.536,855.081,1431.505,836.913z M1309.386,920.619
		c-34.65,6.229-77.866,9.862-128.348,10.382c-78.335,0.956-168.301-5.231-263.111-17.726c7.977-17.367,15.798-35.213,23.426-53.465
		c29.421,9.843,57.973,17.639,85.204,23.164c31.195,6.333,59.664,9.459,85.074,9.459c59.561,0,102.235-17.195,123.31-50.649
		c3.469-5.511,6.299-11.354,8.478-17.526h-30.363c-0.502,0.924-1.038,1.837-1.597,2.728c-15.655,24.851-50.638,37.688-99.759,37.676
		c-23.493,0-50.239-2.932-79.631-8.9c-25.621-5.197-52.487-12.497-80.19-21.691c7.311-18.291,14.418-36.933,21.282-55.858
		c18.508-51.031,34.352-101.618,47.169-150.196c58.414,8.611,121.106,12.935,187.728,12.935c41.477,0,84.483-1.673,128.906-5.024
		c6.596,31.978,9.928,64.706,9.928,97.945C1346.891,798.629,1334.303,861.441,1309.386,920.619z M676.813,1174.042
		c-14.767-5.355-22.263-26.551-25.951-43.388c-5.829-26.608-6.883-63.982-3.048-108.08c1.939-22.302,5.057-46.015,9.254-70.817
		c60.527,16.132,120.467,36.878,178.833,61.88c-13.147,22.669-26.44,43.688-39.732,62.743
		c-25.326,36.304-50.093,64.313-71.624,80.998C710.921,1167.937,691.582,1179.397,676.813,1174.042z M849.272,989.904
		c-61.092-26.326-123.902-48.081-187.341-64.876c2.236-11.513,4.688-23.226,7.351-35.118c17.641,4.011,35.531,7.893,53.646,11.631
		c53.01,10.842,105.892,20.047,157.657,27.495C870.333,950.248,859.867,970.581,849.272,989.904z M734.607,882.334
		c-20.481-4.214-40.666-8.618-60.503-13.19c9.338-38.858,20.81-79.37,34.204-120.648c69.619,42.796,140.419,77.609,207.456,102.315
		c-8.41,20.078-17.048,39.656-25.871,58.604C838.975,902.11,786.878,893.051,734.607,882.334z M564.572,357.801
		c4.435,9.087,10.561,20.351,18.82,33.115c35.195,54.392,81.678,93.82,114.475,117.318c18.833,13.493,38.93,25.999,60.234,37.501
		c-19.443,42.367-37.961,87.583-54.989,134.534c-3.175,8.754-6.262,17.492-9.279,26.212
		c-101.707-66.203-187.815-142.168-244.301-215.686c-0.008-0.01-0.016-0.02-0.023-0.03c14.141-24.125,30.356-46.954,48.516-68.356
		c7.526-8.825,15.314-17.391,23.49-25.696c1.167-1.168,2.206-2.206,3.374-3.374C537.522,380.706,550.771,368.866,564.572,357.801z
		 M999.459,284.438c14.767,5.356,22.263,26.551,25.951,43.388c5.829,26.608,6.883,63.982,3.048,108.081
		c-4.198,48.27-13.864,103.095-28.25,161.471c-17.373-2.988-34.342-6.369-50.867-10.169c-57.095-13.13-109.143-31.09-155.624-53.65
		c27.735-57.841,57.063-109.423,86.386-151.457c25.326-36.304,50.093-64.313,71.624-80.998
		c11.234-8.706,26.353-18.025,39.592-18.025C994.136,283.077,996.869,283.499,999.459,284.438z M941.42,613.172
		c16.916,3.927,34.29,7.413,52.059,10.509c-12.484,46.974-27.862,95.898-45.778,145.296c-6.906,19.041-14.057,37.785-21.412,56.156
		c-67.301-24.711-138.733-60.052-208.961-103.707c3.629-10.61,7.373-21.255,11.243-31.924
		c16.645-45.894,34.711-90.065,53.654-131.432C829.96,581.205,883.19,599.653,941.42,613.172z M1205.825,393.338
		c44.253,44.253,79.034,95.775,103.302,153.135c8.655,20.493,15.835,41.435,21.529,62.752c-110.993,8.116-212.7,5.567-303.617-7.591
		c14.427-58.948,24.141-114.4,28.4-163.381c4.704-54.088,4.131-118.155-17.799-154.208c5.083,1.954,10.145,3.989,15.179,6.122
		C1110.18,314.434,1161.7,349.084,1205.825,393.338z M865.422,252.271c33.356,0,66.163,3.356,98.232,10.016
		c-37.827,16.466-76.446,62.295-105.761,104.319c-30.004,43.009-59.966,95.647-88.258,154.568
		c-19.09-10.373-37.149-21.578-54.112-33.613c-56.273-39.924-89.985-81.729-108.358-109.768
		c-9.754-14.887-16.332-27.569-20.52-36.67c19.753-14.05,40.522-26.598,62.238-37.553c0.007,0.002,0.013,0.004,0.02,0.006
		c8.84-4.462,17.856-8.637,27.004-12.555c0.665-0.283,1.321-0.575,1.988-0.856c0.151-0.068,0.309-0.127,0.461-0.195
		c1.953-0.825,3.911-1.627,5.875-2.421c0.526-0.208,1.062-0.421,1.58-0.628C742.784,263.951,803.259,252.271,865.422,252.271z
		 M394.993,312.534c15.655-24.851,50.638-37.676,99.759-37.676c23.494,0,50.239,2.933,79.632,8.9
		c11.159,2.259,22.558,4.918,34.15,7.976c0.01,0.003,0.021,0.006,0.03,0.008c-38.142,22.059-73.171,49.045-104.699,80.703
		c-6.618,6.489-12.978,13.237-19.207,20.245c-7.787,8.566-15.184,17.521-22.321,26.605c-11.42,14.535-21.932,29.718-31.665,45.292
		c-0.008,0.013-0.016,0.026-0.023,0.039C387.243,400.176,374.194,345.528,394.993,312.534z M421.587,546.474
		c4.283-9.863,8.695-19.596,13.497-29.069c0.004-0.008,0.008-0.016,0.012-0.024c59.48,74.344,147.148,150.344,249.58,216.257
		c-14.524,44.205-26.916,87.649-36.917,129.284c-74.522-18.029-143.585-38.432-204.109-60.269
		c-12.719-4.542-25.047-9.214-36.857-13.886c-7.008-2.726-13.886-5.58-20.634-8.435c-1.038-10.382-1.817-20.895-2.077-31.406
		c-0.13-5.062-0.26-9.992-0.26-15.054c0-5.84,0.13-11.81,0.26-17.649c1.687-43.735,9.085-86.431,22.062-127.7
		c2.206-7.008,4.542-13.887,7.138-20.764C415.877,560.619,418.603,553.481,421.587,546.474z M334.767,757.231
		c-92.011-44.903-134.059-88.248-115.241-119.005c15.184-24.917,70.468-41.788,155.082-48.017
		c-10.382,35.039-16.742,71.247-19.207,107.974c-0.779,10.901-1.168,21.802-1.297,32.833v2.856c0,11.031,0.39,22.062,1.038,32.963
		C348.134,763.719,341.386,760.475,334.767,757.231z M404.587,812.385c12.458,4.672,25.177,9.344,38.284,13.887
		c60.253,20.878,127.796,40.283,200.044,57.5c-2.624,11.706-5.043,23.243-7.265,34.599c-5.904-1.432-11.812-2.835-17.724-4.18
		c-99.884-22.735-174.838-27.36-209.583-28.144c-8.606-25.923-14.934-52.438-18.94-79.502
		C394.464,808.492,399.525,810.438,404.587,812.385z M421.587,921.268c-1.085-2.577-2.141-5.161-3.179-7.75
		c37.056,1.491,105.754,7.105,193.507,27.079c6.279,1.429,12.554,2.927,18.825,4.456c-4.517,26.342-7.849,51.515-9.907,75.175
		c-3.898,44.827-4.175,96.512,8.328,133.421c-38.055-21.424-72.954-47.926-104.273-79.245
		C480.636,1030.149,445.855,978.628,421.587,921.268z M1052.819,1177.575c-59.438,25.177-122.379,37.895-187.397,37.895
		c-50.086,0-99.015-7.556-146.02-22.531c35.623-18.671,71.414-61.552,98.978-101.064c14.217-20.38,28.424-42.933,42.45-67.276
		c80.868,36.622,158.625,81.613,231.668,134.027C1079.61,1165.513,1066.38,1171.838,1052.819,1177.575z M1205.825,1074.403
		c-26.616,26.694-55.928,49.888-87.585,69.423c-76.727-56.079-158.707-104.078-244.115-142.934
		c11.742-21.515,23.314-44.239,34.612-67.961c78.177,10.36,153.334,16.577,221.949,18.185c17.909,0.519,35.299,0.519,52.169,0.389
		c43.734-0.519,82.667-3.115,116.02-7.787C1275.514,992.125,1244.239,1035.989,1205.825,1074.403z"/>
	<g>
		<path style="fill:#E58638;" d="M2409.333,773.436c0,0,96.272,94.746,100.677,130.472s-43.666,91.615-43.666,91.615
			L2409.333,773.436z"/>
		<path style="fill:#163560;" d="M2374.586,1757.506c0,0-3.122,50.369-12.867,51.091c-1.296,0.096-49.425,0.096-49.425,0.096
			l-61.438-0.356c0,0,0.401-14.803,18.36-17.933s48.018-15.751,58.896-39.487
			C2339.559,1725.945,2374.586,1757.506,2374.586,1757.506z"/>
		<path style="fill:#163560;" d="M2511.43,1757.506c0,0-3.123,50.369-12.867,51.091c-1.297,0.096-49.425,0.096-49.425,0.096
			l-61.438-0.356c0,0,0.402-14.803,18.361-17.933c17.958-3.13,48.018-15.751,58.896-39.487
			C2476.401,1725.945,2511.43,1757.506,2511.43,1757.506z"/>
		<path style="fill:#163560;" d="M2306.544,1216.181c0,0,16.069,102.77,76.012,285.202
			c59.942,182.434,68.111,261.432,68.111,261.432l64.305-1.803c0,0,0.548-199.377-27.077-291.115
			c-27.625-91.739-5.962-330.728-5.962-330.728L2306.544,1216.181z"/>
		<path style="fill:#1C468A;" d="M2275.252,1144.799c0,0-2.275,154.867,24.52,345.017s17.712,270.865,17.712,270.865l64.176,2.134
			c0,0,38.352-190.221,27.356-285.395c-10.996-95.175,52.518-326.586,52.518-326.586L2275.252,1144.799z"/>
		<path style="fill:#FFB27D;" d="M2399.485,782.389l-30.268,22.418l-43.745-9.209c0.605-3.99,3.493-20.523,6.123-35.499
			c0.158-0.883,0.317-1.766,0.467-2.63c2.252-12.742,4.197-23.688,4.197-23.688l40.857-20.364l15.233-7.592
			c-0.04,0.268-1.181,14.142-1.34,16.166C2388.152,757.956,2399.485,782.389,2399.485,782.389z"/>
		<path style="fill:#E58638;" d="M2328.534,771.077c0.959-0.404,59.507-17.681,65.867-15.581s10.126,14.406,10.126,14.406
			l-95.766,21.651C2308.762,791.553,2316.3,776.228,2328.534,771.077z"/>
		<path style="fill:#EE9849;" d="M2486.192,1163.917c-9.925,45.273-175.09,50.643-217.664,9.547
			c-4.843-4.685-5.081-26.478-3.255-55.862c3.572-57.41,15.045-143.769,15.491-187.891c0.219-21.307,3.146-43.1,7.046-62.888
			c8.297-42.177,20.95-75.274,20.95-75.274s80.672-26.08,95.767-21.644C2477.25,791.271,2496.116,1118.644,2486.192,1163.917z"/>
		<path style="fill:#E58638;" d="M2265.273,1117.602c3.572-57.41,15.045-143.769,15.491-187.891
			c0.219-21.307,3.146-43.1,7.046-62.888l48.529-8.565C2336.34,858.258,2383.786,1052.054,2265.273,1117.602z"/>
		<path style="fill:#FFB27D;" d="M2291.553,1037.579c0,0,3.308,7.907-3.639,13.217c-6.947,5.309-11.452,13.909-9.861,20.194
			s16.829,16.539,22.111,14.886s16.033-9.933,14.875-13.248c-1.157-3.314,7.231-29.094-5.646-39.019
			C2296.515,1023.685,2291.553,1037.579,2291.553,1037.579z"/>
		<path style="fill:#EE9849;" d="M2345.721,781.5c0,0-47.232,7.29-84.943,62.864c-37.711,55.574-62.521,96.892-55.574,116.921
			c6.946,20.03,70.269,89.498,81.186,89.498c10.916,0,28.533-7.939,29.525-25.803c0,0-44.582-66.817-35.8-76.825
			c3.753-4.276,57.879-48.217,65.606-28.37C2358.506,952.626,2345.721,781.5,2345.721,781.5z"/>
		<path style="fill:#FCA56B;" d="M2387.944,722.626c-8.972,17.169-42.405,32.015-56.349,37.473c0.158-0.883,0.317-1.766,0.467-2.63
			c2.252-12.742,4.197-23.688,4.197-23.688l40.857-20.364C2386.147,713.278,2391.646,715.56,2387.944,722.626z"/>
		<path style="fill:#FFB27D;" d="M2316.405,731.389c0,0,73.711,22.994,87.323-23.13c13.613-46.124,32.295-74.22-14.192-90.851
			c-46.487-16.631-60.867-1.742-69.155,12.548C2312.093,644.247,2297.582,724.219,2316.405,731.389z"/>
		<path style="fill:#163560;" d="M2331.941,627.273c0,0,4.255,55.372,15.398,52.872c11.145-2.501,21.249-4.369,19.482,12.348
			c-1.767,16.717-17.352,36.137,16.908,38.801c34.26,2.664,84.297-88.834,75.021-105.999
			C2431.986,575.769,2293.164,566.906,2331.941,627.273z"/>
	</g>
	<g>
		<g>
			<path style="fill:#E49963;" d="M2852.088,1133.365c0,0-28.272,7.261-46.244,1.847c-17.973-5.414-48.904,3.478-53.886,10.031
				c-4.98,6.554-3.151,9.157,5.737,11.419s40.38,15.693,61.076,7.92c20.697-7.774,47.691-8.057,47.691-8.057L2852.088,1133.365z"/>
			<path style="fill:#4A75CB;" d="M3096.43,887.773c0,0-31.76,225.729-84.35,245.948c-25.949,9.976-140.631,32.59-174.556,34.861
				c0,0-8.31-6.741-6.285-34.183c0,0,120.152-44.111,137.222-68.101c25.404-35.703-15.771-145.855,16.106-179.387
				C3016.444,853.38,3070.133,838.969,3096.43,887.773z"/>
		</g>
		<path style="fill:#2B478B;" d="M3092.373,1757.951v-49.641h77.484c2.091,0,3.802-1.711,3.802-3.802v-7.885
			c0-2.091-1.711-3.802-3.802-3.802h-77.484V1412.66c0-7.86-6.432-14.293-14.293-14.293h-15.334
			c-7.861,0-14.293,6.433-14.293,14.293v280.162h-77.484c-2.091,0-3.802,1.711-3.802,3.802v7.885c0,2.091,1.711,3.802,3.802,3.802
			h77.484v49.641c-56.066,4.236-100.979,24.432-113.579,50.51h271.078C3193.352,1782.383,3148.439,1762.188,3092.373,1757.951z"/>
		<path style="fill:#163560;" d="M3085.727,1363.341c-9.265,15.716-19.979,30.442-31.024,44.389
			c-34.136,43.093-71.293,78.623-77.767,112.209c-1.285,6.693-3.329,13.902-6,21.497c-2.703,7.692-6.045,15.781-9.902,24.145
			c-14.484,31.465-36.146,66.721-57.774,98.768c-37.388,55.401-72.546,101.629-72.546,101.629l-64.475-2.747
			c2.582-6.462,30.702-82.957,68.321-176.438c15.276-37.949,31.52-78.315,47.191-117.242c2.089-5.198,4.177-10.375,6.243-15.507
			c4.791-11.913,9.506-23.64,14.11-35.059c35.322-87.777,63.457-157.674,63.457-157.674s141.178-53.48,155.839-18.826
			C3133.489,1271.058,3123.643,1299.049,3085.727,1363.341z"/>
		<path style="fill:#163560;" d="M2828.698,1754.254c0,0-3.155,53.459-13.448,54.222c-1.369,0.102-117.75,0-117.75,0
			s0.928-16.167,19.897-19.472c18.97-3.307,50.721-16.639,62.212-41.71C2791.698,1720.918,2828.698,1754.254,2828.698,1754.254z"/>
		<path style="fill:#163560;" d="M2977.995,1602.261c0,0,44.846,28.816,40.494,38.176c-0.579,1.245-25.362,45.633-25.362,45.633
			l-31.965,56.479c0,0-13.446-7.993-7.085-26.168s10.199-52.396-6.09-74.652C2930.852,1618.314,2977.995,1602.261,2977.995,1602.261
			z"/>
		<path style="fill:#1C468A;" d="M2918.438,1235.313c0,0-178.324,110.994-198.105,185.174
			c-19.781,74.179,235.725,232.428,235.725,232.428s28.023-24.727,32.969-42.859c0,0-115.493-138.367-140.545-169.384
			c-15.386-19.05,227.496-65.942,257.168-112.099s19.049-84.99,19.049-84.99L2918.438,1235.313z"/>
		<path style="fill:#EE9849;" d="M3251.749,1377.666h-362.672c-7.254,0-13.188,5.936-13.188,13.188v72.534
			c0,7.254,5.935,13.188,13.188,13.188h362.672c7.254,0,13.188-5.935,13.188-13.188v-72.534
			C3264.938,1383.602,3259.003,1377.666,3251.749,1377.666z"/>
		<path style="fill:#E49963;" d="M3085.09,845.18c0,0-70.37,39.34-112.83,28.36c0,0,9.6-13.68,27-24.46
			c-0.93-4.13-1.74-8.02-2.439-11.64c-4.061-20.73-4.79-32.79-4.79-32.79l32.42-29.05c8.97,1.9,17.35,3.68,21.8,4.62
			c0.42,2.14,0.88,4.22,1.4,6.26C3057.77,826.82,3085.09,845.18,3085.09,845.18z"/>
		<path style="fill:#739AF0;" d="M3130.05,1049.52c-6.08,81.791,1.92,206.17-4.979,227.711c-5.961,18.59-73.79,7.539-100.87,1.34
			c-10.021-2.301-22.16-5.58-34.69-9.46c-34.97-10.83-73.08-26.29-77.17-37.771c-0.15-0.45-0.29-0.89-0.37-1.32
			c0-0.01,0-0.02,0-0.02c-0.069-0.29-0.12-0.58-0.159-0.86c-0.181-1.35-0.07-2.63,0.229-3.93c1.36-5.85,6.61-12.18,7.229-26.67
			c0.69-16.17,0.59-35.22,1.2-55.7c0.03-2.31,0.061-4.83,0.311-7.12l0.01-0.84c0.01-0.44,0.021-0.87,0.03-1.31
			c0.59-22.84,1.789-46.86,3.17-70.67c0.88-14.961,1.899-29.78,3.07-43.971c3.049-36.64,7.159-69.22,12.6-89.81
			c8.89-33.58,28.49-55.48,46.34-71.53l12.9-11.07c14.399,3.15,31.43,1.06,46.83-6.24c16.659-7.91,22.42-13.58,25.319-11.44
			C3109.54,858.54,3137.23,949.54,3130.05,1049.52z"/>
		<path style="fill:#4A75CB;" d="M2989.51,1269.11c-34.97-10.83-73.08-26.29-77.17-37.771c-0.15-0.45-0.29-0.89-0.37-1.32
			c0-0.01,0-0.02,0-0.02c0-0.28-0.06-0.57-0.159-0.86c-0.181-1.35-0.07-2.63,0.229-3.93c1.36-5.85,6.61-12.18,7.229-26.67
			c0.69-16.17,0.59-35.22,1.2-55.7c0.03-2.31,0.061-4.83,0.311-7.12l0.01-0.84c0.01-0.44,0.021-0.87,0.03-1.31l132.1-59.91
			C3052.92,1073.66,3060.53,1180.12,2989.51,1269.11z"/>
		<path style="fill:#D68D5D;" d="M3047.65,786.48c-4.801,12.13-19.17,40.73-50.83,50.96c-4.061-20.73-4.79-32.79-4.79-32.79
			l32.42-29.05c8.97,1.9,17.35,3.68,21.8,4.62C3046.67,782.36,3047.13,784.44,3047.65,786.48z"/>
		<path style="fill:#E49963;" d="M2979.206,804.335c0,0,69.568,7.847,73.788-35.552c4.22-43.398,16.041-71.614-28.198-78.459
			c-44.239-6.845-54.492,8.875-59.424,23.018C2960.439,727.485,2961.219,801.176,2979.206,804.335z"/>
		<path style="fill:#2B478B;" d="M3052.695,771.778c0,0-4.412-57.607-67.738-63.574c-43.375-4.087-19.191-41.419-14.568-47.373
			c0,0,33.232,4.556,67.297,10.184C3109.182,682.828,3059.717,762.81,3052.695,771.778z"/>
		<polygon style="fill:#4A75CB;" points="2885.535,1177.633 2713.149,1181.314 2664.139,1030.479 2658.049,1032.457
			2709.86,1191.912 2885.76,1188.155 		"/>
		<g>
			<path style="fill:#E49963;" d="M2866.638,1168.068c0,0-27.3,10.334-45.76,6.935c-18.46-3.4-48.222,8.849-52.45,15.91
				c-4.229,7.063-2.124,9.449,6.961,10.717c9.084,1.269,41.863,11.146,61.577,1.139c19.714-10.009,46.513-13.266,46.513-13.266
				L2866.638,1168.068z"/>
			<path style="fill:#739AF0;" d="M3082.414,897.036c0,0-6.681,227.855-56.721,253.748
				c-24.691,12.776-136.181,47.896-169.647,53.894c0,0-9.003-5.784-10.017-33.281c0,0,114.558-57.089,128.878-82.814
				c21.313-38.285-31.755-143.227-3.769-180.069C2999.124,871.671,3050.896,851.428,3082.414,897.036z"/>
		</g>
	</g>
	<g>
		<g>
			<path style="fill:#D86713;" d="M1194.902,916.692l-70.693,840.553c0,0-7.407,50.953,30.493,51.043
				c62.315,0.149,310.166,0,310.166,0s-46.901-10.606-46.333-34.471c0.67-28.13,82.625-865.08,82.625-865.08L1194.902,916.692z"/>
			<path style="fill:#EE9849;" d="M1484.977,1793.038c-12.256,0.036-248.983,0.779-309.668,0
				c-26.448-0.329-31.084-23.515-31.304-38.521c-0.109-7.193,0.803-12.512,0.803-12.512l1.837-21.847l4.686-55.684l4.138-49.195
				l5.319-63.217l4.479-53.357l50.23-597.271l306.261-7.948c0,0-34.517,350.259-58.933,605.219
				c-2.726,28.407-5.318,55.646-7.716,81.071c-0.779,8.118-1.521,16.054-2.251,23.782c-2.264,24.123-4.333,46.274-6.134,65.834
				c-0.949,10.309-1.826,19.887-2.617,28.662c-3.116,34.384-4.941,56.34-4.966,60.515c-0.012,2.435,0.194,4.698,0.596,6.804
				C1444.764,1792.162,1480.377,1793.038,1484.977,1793.038z"/>
			<polygon style="fill:#F1A34F;" points="451.134,459.294 623.329,1150.966 646.906,1245.692 727.106,1567.854 2217.094,1567.854
				1921.489,459.294 			"/>
			<polygon style="fill:#EE9849;" points="451.132,459.293 427.268,467.248 695.379,1591.917 727.108,1567.857 			"/>
			<polygon style="fill:#D86713;" points="695.379,1591.917 2176.196,1591.917 2217.089,1567.857 727.108,1567.857 			"/>
			<rect x="1215.398" y="1793.374" style="fill:#F1A34F;" width="320.619" height="15.235"/>
			<polygon style="fill:#F1A34F;" points="2144.91,1363.584 1903.142,473.95 448.75,473.95 448.75,459.293 1921.488,459.293
				2162.449,1361.606 			"/>
			<polygon style="fill:#D86713;" points="1454.513,1591.911 1452.858,1603.559 1151.332,1664.475 1155.47,1615.279
				1157.441,1591.911 			"/>
			<path style="opacity:0.4;fill:#D86713;" d="M1484.977,1793.038c-12.256,0.036-248.983,0.779-309.668,0
				c-26.448-0.329-31.084-23.515-31.304-38.521l300.102-56.462c-3.116,34.384-4.941,56.34-4.966,60.515
				c-0.012,2.435,0.194,4.698,0.596,6.804C1444.764,1792.162,1480.377,1793.038,1484.977,1793.038z"/>
			<polygon style="opacity:0.4;fill:#D86713;" points="1381.635,1343.439 727.108,1567.857 646.906,1245.692 			"/>
			<polygon style="fill:#699DEE;" points="451.132,459.293 1921.488,459.293 2160.056,1350.227 665.356,1350.227 			"/>
		</g>

			<ellipse transform="matrix(0.672 -0.7405 0.7405 0.672 -600.4957 1569.7993)" style="fill:#D86713;" cx="1472.038" cy="1462.853" rx="35.904" ry="43.594"/>
		<polygon style="fill:#E9F3FE;" points="2090.709,1311.619 714.009,1311.619 558.101,690.532 546.15,642.902 535.949,602.276
			512.039,507.017 1868.896,507.017 1895.154,602.276 1906.354,642.902 1919.483,690.532 		"/>
		<polygon style="fill:#AFCDFB;" points="1895.154,602.276 535.949,602.276 512.039,507.017 1868.896,507.017 		"/>
		<g>
			<path style="fill:#E9F3FE;" d="M577.11,538.159c-6.577,0-10.579,5.331-8.94,11.908c1.64,6.576,8.3,11.908,14.877,11.908
				c6.577,0,10.579-5.332,8.939-11.908C590.348,543.49,583.687,538.159,577.11,538.159z"/>
			<path style="fill:#E9F3FE;" d="M616.677,538.159c-6.577,0-10.579,5.331-8.939,11.908c1.64,6.576,8.301,11.908,14.877,11.908
				c6.577,0,10.579-5.332,8.939-11.908C629.915,543.49,623.254,538.159,616.677,538.159z"/>
			<path style="fill:#E9F3FE;" d="M674.16,550.067c-1.64-6.577-8.3-11.908-14.877-11.908c-6.577,0-10.579,5.331-8.939,11.908
				c1.64,6.576,8.301,11.908,14.877,11.908S675.8,556.644,674.16,550.067z"/>
		</g>
		<g>
			<g>
				<path style="fill:#F1A34F;" d="M1659.341,880.531c-9.939-39.864-50.488-72.296-90.389-72.296
					c-19.24,0-35.637,7.424-46.168,20.903c-10.97,14.041-14.264,32.794-9.274,52.806c9.939,39.864,50.488,72.296,90.389,72.296
					c19.24,0,35.636-7.424,46.167-20.903C1661.037,919.296,1664.33,900.542,1659.341,880.531z M1645.464,929.741
					c-9.4,12.032-24.162,18.658-41.565,18.658c-37.385,0-75.392-30.445-84.722-67.868c-4.545-18.229-1.629-35.203,8.21-47.797
					c9.4-12.032,24.162-18.658,41.565-18.658c37.385,0,75.391,30.445,84.722,67.868
					C1658.219,900.173,1655.303,917.148,1645.464,929.741z"/>
				<polygon style="fill:#F1A34F;" points="1595.598,897.56 1588.332,846.744 1587.759,844.445 1567.294,844.445 1567.867,846.744
					1585.94,897.56 				"/>
				<polygon style="fill:#F1A34F;" points="1583.693,906.528 1588.279,924.923 1606.904,924.923 1602.318,906.528 				"/>
			</g>
			<g>
				<path style="fill:#F1A34F;" d="M1703.783,1053.174c-9.939-39.864-50.488-72.296-90.389-72.296
					c-19.24,0-35.636,7.424-46.167,20.903c-10.97,14.042-14.264,32.795-9.275,52.806c9.94,39.864,50.488,72.296,90.389,72.296
					c19.24,0,35.637-7.423,46.168-20.902C1705.479,1091.938,1708.772,1073.185,1703.783,1053.174z M1689.906,1102.384
					c-9.4,12.031-24.162,18.658-41.565,18.658c-37.385,0-75.391-30.446-84.722-67.868c-4.545-18.229-1.63-35.204,8.21-47.798
					c9.4-12.032,24.162-18.658,41.565-18.658c37.385,0,75.391,30.446,84.722,67.868
					C1702.661,1072.815,1699.746,1089.79,1689.906,1102.384z"/>
				<polygon style="fill:#F1A34F;" points="1640.041,1070.203 1632.774,1019.386 1632.201,1017.087 1611.736,1017.087
					1612.31,1019.386 1630.383,1070.203 				"/>
				<polygon style="fill:#F1A34F;" points="1628.135,1079.17 1632.721,1097.565 1651.346,1097.565 1646.76,1079.17 				"/>
			</g>
			<g>
				<path style="fill:#AFCDFB;" d="M1856.132,858.334c4.524,0,7.304-3.702,6.176-8.226c-1.128-4.525-5.753-8.227-10.278-8.227
					h-146.51c-4.524,0-7.303,3.702-6.175,8.227c1.128,4.524,5.753,8.226,10.278,8.226H1856.132z"/>
				<path style="fill:#AFCDFB;" d="M1837.996,741.466c-1.128-4.524-5.753-8.227-10.277-8.227h-146.511
					c-4.524,0-7.303,3.702-6.175,8.227c1.128,4.525,5.753,8.227,10.278,8.227h146.51
					C1836.345,749.692,1839.124,745.991,1837.996,741.466z"/>
				<path style="fill:#AFCDFB;" d="M1863.945,889.674c4.525,0,7.304-3.702,6.176-8.227c-1.128-4.524-5.753-8.227-10.277-8.227
					h-146.51c-4.524,0-7.304,3.702-6.175,8.227c1.128,4.524,5.753,8.227,10.277,8.227H1863.945z"/>
				<path style="fill:#AFCDFB;" d="M1877.935,912.786c-1.128-4.524-5.753-8.227-10.277-8.227h-146.51
					c-4.524,0-7.303,3.702-6.175,8.227c1.128,4.524,5.753,8.227,10.278,8.227h146.51
					C1876.284,921.013,1879.063,917.31,1877.935,912.786z"/>
				<path style="fill:#AFCDFB;" d="M1900.574,1030.977c4.524,0,7.304-3.702,6.176-8.227c-1.129-4.524-5.754-8.227-10.277-8.227
					h-146.511c-4.524,0-7.303,3.702-6.175,8.227s5.753,8.227,10.278,8.227H1900.574z"/>
				<path style="fill:#AFCDFB;" d="M1908.388,1062.315c4.524,0,7.304-3.702,6.176-8.227s-5.753-8.227-10.277-8.227h-146.51
					c-4.525,0-7.304,3.702-6.176,8.227c1.128,4.524,5.753,8.227,10.278,8.227H1908.388z"/>
				<path style="fill:#AFCDFB;" d="M1922.377,1085.428c-1.128-4.524-5.753-8.227-10.277-8.227h-146.51
					c-4.525,0-7.303,3.702-6.175,8.227c1.128,4.525,5.753,8.227,10.277,8.227h146.51
					C1920.727,1093.654,1923.505,1089.953,1922.377,1085.428z"/>
			</g>
			<path style="fill:#AFCDFB;" d="M1831.828,706.882l-10.227-41.015c-1.875-7.521-9.563-13.675-17.085-13.675H630.214
				c-7.521,0-12.141,6.154-10.266,13.675l10.226,41.015c1.875,7.521,9.563,13.675,17.085,13.675h1174.303
				C1829.084,720.557,1833.703,714.403,1831.828,706.882z"/>
			<path style="fill:#F1A34F;" d="M1462.659,652.192l17.045,68.364H647.26c-7.522,0-15.21-6.154-17.085-13.675l-10.226-41.014
				c-1.875-7.521,2.745-13.675,10.266-13.675H1462.659z"/>
			<polygon style="fill:#699DEE;" points="1612.197,673.803 1613.507,679.055 1626.499,679.055 1619.721,701.446 1626.592,701.446
				1633.242,678.384 1632.1,673.803 			"/>
			<path style="fill:#699DEE;" d="M1647.655,673.329c-7.346,0-10.756,6.279-8.757,14.295c2.018,8.096,8.421,14.295,15.807,14.295
				c7.384,0,10.755-6.279,8.756-14.295C1661.443,679.529,1654.961,673.329,1647.655,673.329z M1653.415,696.431
				c-3.673,0-7.017-3.752-8.277-8.806c-1.28-5.134,0.174-8.806,3.807-8.806c3.633,0,7.027,3.791,8.277,8.806
				C1658.492,692.719,1657.088,696.431,1653.415,696.431z"/>
			<path style="fill:#699DEE;" d="M1699.693,694.693c-0.984-3.949-4.448-7.069-8.437-7.069c-4.028,0-5.965,3.159-4.99,7.069
				c0.984,3.949,4.448,7.069,8.437,7.069C1698.731,701.762,1700.658,698.563,1699.693,694.693z M1693.886,698.169
				c-1.579,0-3.01-1.62-3.473-3.475c-0.473-1.896,0.002-3.476,1.661-3.476c1.58,0,3.01,1.62,3.473,3.476
				C1696.01,696.549,1695.545,698.169,1693.886,698.169z"/>
			<polygon style="fill:#699DEE;" points="1687.021,673.803 1673.733,701.446 1678.433,701.446 1691.721,673.803 			"/>
			<path style="fill:#699DEE;" d="M1679.188,680.556c-0.984-3.949-4.448-7.069-8.437-7.069c-4.028,0-5.965,3.16-4.99,7.069
				c0.984,3.949,4.447,7.069,8.436,7.069C1678.225,687.625,1680.152,684.426,1679.188,680.556z M1669.907,680.556
				c-0.473-1.896,0.002-3.475,1.661-3.475c1.58,0,3.01,1.619,3.473,3.475c0.463,1.856-0.002,3.476-1.661,3.476
				C1671.801,684.031,1670.37,682.412,1669.907,680.556z"/>
			<g>
				<path style="fill:#AFCDFB;" d="M1407.645,1016.863c8.531,0,13.723-6.915,11.596-15.446l0,0
					c-2.127-8.531-10.767-15.447-19.298-15.447H715.206c-8.531,0-13.723,6.916-11.596,15.447l0,0
					c2.127,8.531,10.767,15.446,19.298,15.446H1407.645z"/>
				<path style="fill:#AFCDFB;" d="M1420.431,1068.146c8.531,0,13.723-6.916,11.596-15.447s-10.767-15.447-19.298-15.447H727.993
					c-8.531,0-13.723,6.916-11.596,15.447s10.767,15.447,19.298,15.447H1420.431z"/>
				<path style="fill:#AFCDFB;" d="M1445.381,1106.26c-2.127-8.53-10.768-15.446-19.298-15.446H741.347
					c-8.531,0-13.723,6.916-11.596,15.446c2.127,8.531,10.768,15.447,19.298,15.447h684.736
					C1442.316,1121.707,1447.508,1114.791,1445.381,1106.26z"/>
				<path style="fill:#AFCDFB;" d="M1032.941,933.507c2.673,10.723,13.533,19.415,24.255,19.415h76.373
					c10.723,0,17.248-8.692,14.574-19.415l-36.917-148.064c-2.673-10.723-13.533-19.415-24.255-19.415h-76.373
					c-10.723,0-17.247,8.692-14.574,19.415L1032.941,933.507z"/>
				<path style="fill:#AFCDFB;" d="M1165.127,933.507c2.673,10.723,13.533,19.415,24.255,19.415h76.373
					c10.723,0,17.248-8.692,14.574-19.415l-36.917-148.064c-2.673-10.723-13.533-19.415-24.256-19.415h-76.373
					c-10.722,0-17.248,8.692-14.574,19.415L1165.127,933.507z"/>
				<path style="fill:#AFCDFB;" d="M1294.845,933.507c2.673,10.723,13.533,19.415,24.256,19.415h76.373
					c10.723,0,17.248-8.692,14.574-19.415l-36.917-148.064c-2.673-10.723-13.533-19.415-24.256-19.415h-76.373
					c-10.723,0-17.248,8.692-14.574,19.415L1294.845,933.507z"/>
			</g>
			<g>
				<path style="fill:#AFCDFB;" d="M1007.053,920.38l-30.371-121.811c-4.481-17.973-22.683-32.542-40.655-32.542H677.463
					c-17.972,0-28.909,14.569-24.428,32.542l30.371,121.811c4.481,17.972,22.683,32.542,40.655,32.542h258.563
					C1000.597,952.922,1011.534,938.352,1007.053,920.38z"/>
				<g>
					<path style="fill:#699DEE;" d="M932.765,812.75c4.074,0,6.577-3.333,5.561-7.407v-0.001c-1.016-4.074-5.18-7.407-9.254-7.407
						H687.476c-4.074,0-6.576,3.333-5.561,7.407v0.001c1.016,4.074,5.18,7.407,9.254,7.407H932.765z"/>
					<path style="fill:#699DEE;" d="M939.868,841.24c4.074,0,6.576-3.333,5.56-7.407l0,0c-1.016-4.074-5.18-7.407-9.254-7.407
						H694.579c-4.074,0-6.577,3.333-5.56,7.407l0,0c1.016,4.074,5.18,7.407,9.254,7.407H939.868z"/>
					<path style="fill:#699DEE;" d="M952.532,862.323c-1.016-4.074-5.18-7.407-9.254-7.407H701.682
						c-4.074,0-6.576,3.333-5.561,7.407c1.016,4.074,5.18,7.407,9.254,7.407h241.596
						C951.046,869.731,953.548,866.398,952.532,862.323z"/>
					<path style="fill:#699DEE;" d="M766.636,886.825h-56.998c-4.074,0-6.576,3.333-5.561,7.407c1.016,4.074,5.18,7.408,9.254,7.408
						h56.998c4.074,0,6.576-3.333,5.56-7.408C774.875,890.158,770.71,886.825,766.636,886.825z"/>
				</g>
			</g>
			<path style="fill:#AFCDFB;" d="M2014.442,1245.612l-15.931-63.894c-2.35-9.428-11.897-17.069-21.324-17.069h-135.625
				c-9.428,0-15.164,7.642-12.813,17.069l15.931,63.894c2.351,9.427,11.897,17.069,21.325,17.069h135.624
				C2011.057,1262.682,2016.793,1255.039,2014.442,1245.612z"/>
			<g>
				<path style="fill:#699DEE;" d="M1975.477,1189.157c2.137,0,3.449-1.748,2.916-3.886c-0.533-2.137-2.717-3.885-4.854-3.885
					h-126.725c-2.138,0-3.45,1.748-2.917,3.885c0.532,2.138,2.717,3.886,4.854,3.886H1975.477z"/>
				<path style="fill:#699DEE;" d="M1979.202,1204.102c2.137,0,3.449-1.749,2.917-3.886c-0.533-2.137-2.718-3.886-4.854-3.886
					H1850.54c-2.137,0-3.449,1.749-2.917,3.886c0.533,2.137,2.718,3.886,4.854,3.886H1979.202z"/>
				<path style="fill:#699DEE;" d="M1985.845,1215.16c-0.533-2.138-2.718-3.886-4.854-3.886h-126.725
					c-2.137,0-3.449,1.748-2.916,3.886c0.532,2.137,2.717,3.885,4.854,3.885h126.725
					C1985.064,1219.045,1986.377,1217.297,1985.845,1215.16z"/>
				<path style="fill:#699DEE;" d="M1888.336,1228.012h-29.896c-2.138,0-3.45,1.748-2.917,3.886l0,0
					c0.532,2.137,2.717,3.885,4.854,3.885h29.896c2.137,0,3.449-1.748,2.917-3.885
					C1892.657,1229.76,1890.473,1228.012,1888.336,1228.012z"/>
			</g>
			<g>
				<g>
					<path style="fill:#F1A34F;" d="M1073.988,1198.858c3.218,0,5.176-2.608,4.374-5.826l0,0c-0.802-3.218-4.062-5.827-7.279-5.827
						H812.805c-3.218,0-5.176,2.609-4.374,5.827l0,0c0.802,3.218,4.061,5.826,7.279,5.826H1073.988z"/>
					<path style="fill:#F1A34F;" d="M1078.812,1218.201c3.218,0,5.176-2.608,4.374-5.826l0,0c-0.802-3.218-4.062-5.826-7.279-5.826
						H817.628c-3.218,0-5.176,2.608-4.374,5.826l0,0c0.802,3.218,4.061,5.826,7.279,5.826H1078.812z"/>
					<path style="fill:#F1A34F;" d="M1080.943,1226.752H822.665c-3.218,0-5.176,2.608-4.373,5.826
						c0.802,3.218,4.061,5.826,7.279,5.826h258.278c3.218,0,5.176-2.608,4.374-5.826S1084.161,1226.752,1080.943,1226.752z"/>
					<path style="fill:#F1A34F;" d="M1407.305,1198.858c3.218,0,5.176-2.608,4.374-5.826l0,0c-0.802-3.218-4.062-5.827-7.279-5.827
						h-258.278c-3.218,0-5.176,2.609-4.374,5.827l0,0c0.802,3.218,4.062,5.826,7.279,5.826H1407.305z"/>
					<path style="fill:#F1A34F;" d="M1412.128,1218.201c3.218,0,5.176-2.608,4.374-5.826l0,0c-0.802-3.218-4.062-5.826-7.279-5.826
						h-258.278c-3.218,0-5.176,2.608-4.374,5.826l0,0c0.803,3.218,4.062,5.826,7.279,5.826H1412.128z"/>
					<path style="fill:#F1A34F;" d="M1414.26,1226.752h-258.278c-3.218,0-5.176,2.608-4.374,5.826
						c0.802,3.218,4.061,5.826,7.279,5.826h258.278c3.218,0,5.176-2.608,4.374-5.826S1417.478,1226.752,1414.26,1226.752z"/>
					<path style="fill:#F1A34F;" d="M1730.366,1198.858c3.218,0,5.176-2.608,4.373-5.826l0,0c-0.802-3.218-4.061-5.827-7.279-5.827
						h-258.278c-3.218,0-5.176,2.609-4.374,5.827l0,0c0.802,3.218,4.062,5.826,7.279,5.826H1730.366z"/>
					<path style="fill:#F1A34F;" d="M1735.189,1218.201c3.218,0,5.176-2.608,4.374-5.826l0,0c-0.802-3.218-4.061-5.826-7.279-5.826
						h-258.278c-3.218,0-5.176,2.608-4.374,5.826l0,0c0.802,3.218,4.062,5.826,7.279,5.826H1735.189z"/>
					<path style="fill:#F1A34F;" d="M1744.6,1232.578c-0.802-3.218-4.061-5.826-7.279-5.826h-258.278
						c-3.218,0-5.176,2.608-4.374,5.826c0.802,3.218,4.062,5.826,7.279,5.826h258.278
						C1743.444,1238.404,1745.402,1235.796,1744.6,1232.578z"/>
				</g>
				<g>
					<path style="fill:#F1A34F;" d="M1794.567,1271.511H798.555c-8.799,0-17.734-7.127-19.918-15.889l-19.89-79.772
						c-1.132-4.54-0.311-9.026,2.253-12.309c2.516-3.22,6.367-4.992,10.846-4.992h996.012c8.798,0,17.734,7.127,19.918,15.889
						l19.889,79.772c1.133,4.54,0.311,9.026-2.253,12.309C1802.897,1269.738,1799.046,1271.511,1794.567,1271.511z
						 M771.847,1164.389c-2.642,0-4.859,0.977-6.243,2.748c-1.471,1.883-1.893,4.476-1.189,7.301l19.89,79.772
						c1.549,6.212,8.075,11.461,14.251,11.461h996.012c2.642,0,4.858-0.977,6.243-2.748c1.471-1.883,1.894-4.476,1.188-7.301
						l-19.889-79.772c-1.549-6.212-8.076-11.461-14.251-11.461H771.847z"/>
				</g>
			</g>
		</g>
	</g>
	<g>
		<path style="fill:#AFCDFB;" d="M806.336,340.065c-0.157-1.121-1.191-1.9-2.313-1.746l-22.334,3.123
			c-0.798-7.093-4.803-13.746-11.416-17.586l-1.352-0.785c-6.907-4.012-15.072-4.03-21.805-0.799l-8.825-22.132
			c-0.419-1.052-1.615-1.563-2.663-1.145c-1.051,0.42-1.564,1.611-1.145,2.663l9.066,22.737c-1.43,1.034-2.765,2.222-3.947,3.59
			c-0.938,1.073-1.781,2.254-2.521,3.527l-2.455,4.226c-11.587-6.73-20.226-11.748-20.53-11.925
			c-0.98-0.569-2.233-0.235-2.802,0.743c-0.568,0.979-0.235,2.233,0.743,2.802c0.304,0.177,8.943,5.194,20.53,11.924l-1.393,2.398
			c-1.333,2.294-2.22,4.728-2.701,7.203l-28.069,3.925c-1.121,0.157-1.903,1.193-1.746,2.313c0.143,1.025,1.021,1.766,2.027,1.766
			c0.094,0,0.19-0.007,0.286-0.02l27.077-3.787c-0.08,8.125,4.078,16.087,11.567,20.438l1.352,0.786
			c7.195,4.179,15.756,4.039,22.639,0.395l9.627,24.142c0.32,0.802,1.09,1.29,1.904,1.29c0.253,0,0.51-0.047,0.759-0.146
			c1.051-0.419,1.564-1.611,1.145-2.663l-9.931-24.905c2.237-1.76,4.186-3.954,5.697-6.555l1.393-2.398
			c11.792,6.849,20.532,11.925,20.532,11.925c0.324,0.189,0.678,0.278,1.027,0.278c0.707,0,1.394-0.366,1.774-1.021
			c0.569-0.979,0.236-2.233-0.743-2.801c0,0-8.739-5.076-20.531-11.926l2.454-4.225c0.74-1.274,1.348-2.591,1.82-3.935
			c0.714-2.025,1.121-4.108,1.256-6.194l22.799-3.188C805.711,342.222,806.493,341.186,806.336,340.065z"/>
		<path style="fill:#E57970;" d="M778.715,355.695l-5.906,10.168c-6.435,11.079-20.76,14.877-31.839,8.442l-1.352-0.785
			c-11.074-6.433-14.878-20.76-8.442-31.839l5.906-10.169c0.739-1.273,1.582-2.454,2.521-3.527l40.932,23.775
			C780.063,353.104,779.455,354.421,778.715,355.695z"/>
	</g>
	<g>
		<path style="fill:#AFCDFB;" d="M338.138,607.639l-25.794-7.316c-0.032-2.846-0.581-5.729-1.722-8.512l-1.051-2.567l21.972-9
			c1.047-0.429,1.549-1.626,1.12-2.673c-0.429-1.047-1.624-1.549-2.673-1.12l-21.972,9l-1.852-4.522
			c-0.558-1.363-1.231-2.647-2.008-3.842c-1.169-1.801-2.573-3.393-4.143-4.772l11.376-20.014c0.56-0.984,0.215-2.235-0.769-2.794
			c-0.985-0.559-2.235-0.215-2.795,0.769l-11.144,19.605c-6.108-3.692-13.823-4.575-20.899-1.677l-1.447,0.593
			c-7.391,3.027-12.385,9.488-13.93,16.794l-22.922-6.502c-1.089-0.311-2.222,0.323-2.531,1.413
			c-0.309,1.089,0.323,2.222,1.413,2.531l23.549,6.68c-0.053,1.764,0.075,3.546,0.438,5.318c0.279,1.398,0.7,2.786,1.258,4.149
			l1.853,4.521l-21.97,9c-1.047,0.429-1.549,1.626-1.12,2.673c0.325,0.794,1.09,1.273,1.898,1.273c0.259,0,0.522-0.049,0.776-0.153
			l21.97-8.999l1.051,2.567c1.005,2.456,2.394,4.643,4.061,6.533l-14.006,24.64c-0.56,0.984-0.215,2.235,0.769,2.794
			c0.32,0.182,0.668,0.268,1.011,0.268c0.713,0,1.406-0.372,1.784-1.037l13.511-23.769c6.391,5.018,15.237,6.579,23.252,3.296
			l1.447-0.593c7.7-3.154,12.809-10.025,14.118-17.702l25.003,7.092c0.187,0.053,0.375,0.078,0.56,0.078
			c0.893,0,1.715-0.588,1.971-1.491C339.86,609.081,339.228,607.948,338.138,607.639z"/>
		<path style="fill:#E57970;" d="M306.166,580.929l4.457,10.882c4.857,11.857-0.868,25.525-12.725,30.382l-1.447,0.593
			c-11.851,4.854-25.525-0.869-30.382-12.725l-4.457-10.881c-0.558-1.363-0.98-2.751-1.258-4.149l43.804-17.943
			C304.935,578.281,305.607,579.566,306.166,580.929z"/>
	</g>
	<g>
		<path style="fill:#588FE0;" d="M596.884,1343.877c-0.164,0.113-0.347,0.264-0.573,0.432
			c-8.592,6.578-66.997,46.416-198.207,28.772c-0.895,5.043-1.73,10.044-2.514,14.976c-0.393,2.473-0.784,4.933-1.145,7.372
			c-0.369,2.411-0.724,4.813-1.063,7.203l-0.023,0.127c-0.341,2.403-0.678,4.781-0.99,7.164c-0.324,2.381-0.634,4.751-0.931,7.123
			c-0.305,2.345-0.58,4.669-0.855,6.993l-0.021,0.114c-0.26,2.313-0.531,4.612-0.773,6.903c-0.258,2.301-0.489,4.594-0.719,6.887
			c-0.229,2.281-0.454,4.549-0.652,6.809c-0.208,2.244-0.405,4.491-0.586,6.729c-0.137,1.632-0.272,3.251-0.395,4.872
			c-0.11,1.336-0.208,2.675-0.291,4.004c-0.086,1.132-0.16,2.267-0.234,3.4c-0.042,0.593-0.083,1.186-0.112,1.78
			c-0.12,1.896-0.237,3.778-0.342,5.664c-0.115,2.014-0.217,4.029-0.317,6.033c-0.018,0.388-0.033,0.764-0.051,1.151
			c-0.062,1.502-0.134,2.989-0.191,4.466c-0.043,1.179-0.096,2.343-0.124,3.512c-0.129,3.759-0.222,7.459-0.285,11.139
			c-0.03,1.69-0.059,3.368-0.072,5.035c-0.018,1.979-0.03,3.933-0.028,5.877c-0.002,0.156-0.002,0.299-0.003,0.455
			c0.009,1.906,0.007,3.797,0.033,5.68c0.005,1.566,0.025,3.122,0.06,4.667c0.008,1.332,0.043,2.655,0.082,3.967
			c0.009,0.458,0.015,0.929,0.024,1.387c0.039,1.376,0.08,2.74,0.122,4.104c0.048,1.469,0.101,2.913,0.154,4.357
			c0.07,1.564,0.143,3.117,0.218,4.656c0.078,1.813,0.172,3.604,0.28,5.397c0.01,0.158,0.018,0.329,0.029,0.488
			c0.1,1.766,0.216,3.508,0.333,5.251c0.126,1.835,0.254,3.658,0.399,5.458c0.143,1.813,0.289,3.612,0.451,5.39
			c0.147,1.787,0.31,3.564,0.49,5.317c0.166,1.687,0.336,3.348,0.52,5.011c0.016,0.199,0.046,0.399,0.062,0.598
			c0.178,1.623,0.359,3.222,0.554,4.821c0.204,1.693,0.41,3.374,0.628,5.057c0.006,0.04,0.012,0.08,0.015,0.133
			c0.223,1.657,0.434,3.313,0.672,4.96c0.225,1.645,0.463,3.292,0.717,4.929c0.005,0.04,0.011,0.08,0.015,0.133
			c0.247,1.597,0.497,3.181,0.746,4.765c0.008,0.027,0.016,0.055,0.011,0.08c0.258,1.611,0.533,3.2,0.807,4.789
			c0.272,1.601,0.56,3.191,0.85,4.77c0.354,1.941,0.714,3.858,1.088,5.765c0.242,1.191,0.471,2.38,0.715,3.56
			c0.306,1.489,0.616,2.953,0.928,4.405c0.044,0.19,0.088,0.381,0.132,0.571c0.288,1.369,0.601,2.743,0.907,4.09
			c0.331,1.494,0.679,2.965,1.04,4.438c0.72,3.025,1.462,6.002,2.239,8.933c0.346,1.341,0.708,2.658,1.071,3.976
			c0.376,1.385,0.758,2.745,1.152,4.106c0.276,1.002,0.567,1.994,0.858,2.985c0.278,0.989,0.574,1.955,0.879,2.937
			c0.227,0.771,0.468,1.531,0.706,2.305c0.411,1.34,0.824,2.666,1.24,3.979c0.856,2.632,1.732,5.229,2.615,7.788
			c0.435,1.277,0.885,2.546,1.337,3.801c0.452,1.256,0.904,2.511,1.361,3.74c1.256,3.383,2.538,6.691,3.859,9.93
			c0.386,0.969,0.787,1.928,1.188,2.888c0.573,1.381,1.148,2.75,1.738,4.108c0.461,1.061,0.922,2.122,1.397,3.173
			c2.534,5.699,5.149,11.166,7.823,16.382c0.531,1.034,1.054,2.041,1.589,3.051c1.265,2.393,2.538,4.734,3.831,7.041
			c0.441,0.811,0.909,1.612,1.365,2.411c0.427,0.743,0.855,1.484,1.284,2.214c0.497,0.859,0.997,1.706,1.486,2.537
			c1.155,1.916,2.304,3.793,3.472,5.634c0.393,0.645,0.8,1.278,1.197,1.897c1.262,1.975,2.532,3.899,3.81,5.786
			c0.451,0.682,0.904,1.35,1.36,2.006c2.997,4.36,5.989,8.46,8.983,12.325c0.55,0.712,1.113,1.427,1.665,2.126
			c2.89,3.65,5.753,7.088,8.577,10.309c0.898,1.022,1.799,2.033,2.691,3.016c0.077,0.079,0.154,0.157,0.229,0.249
			c0.535,0.58,1.067,1.171,1.605,1.737c3.198,3.458,6.331,6.631,9.355,9.536c0.5,0.481,1,0.963,1.503,1.432
			c0.99,0.948,1.974,1.855,2.951,2.735c0.93,0.846,1.839,1.661,2.728,2.448c0.046,0.033,0.09,0.081,0.136,0.115
			c0.891,0.773,1.759,1.529,2.606,2.256c1.472,1.243,2.902,2.428,4.28,3.536c0.389,0.305,0.765,0.607,1.153,0.912
			c2.51,1.991,4.855,3.743,7.005,5.278c0.648,0.456,1.284,0.91,1.886,1.331c1.799,1.237,3.431,2.313,4.86,3.21
			c0.431,0.286,0.842,0.543,1.241,0.784c0.882,0.537,1.656,1.016,2.341,1.413c0.153,0.093,0.308,0.173,0.45,0.25
			c0.153,0.094,0.293,0.184,0.436,0.262c1.583,0.911,2.447,1.328,2.447,1.328c8.382-2.729,16.502-5.741,24.359-9.034
			c49.624-20.773,88.874-52.31,119.936-88.855c0.083-0.103,0.165-0.192,0.236-0.297c66.858-78.812,95.607-180.803,107.885-248.329
			c1.347-7.479,2.513-14.533,3.497-21.086C640.482,1410.445,601.014,1350.711,596.884,1343.877z"/>
		<g>
			<path style="fill:#AFCDFB;" d="M749.981,1471.623c-11.193,61.562-37.403,154.543-98.355,226.394
				c-0.065,0.096-0.139,0.177-0.215,0.271c-28.318,33.318-64.102,62.068-109.342,81.007c-7.164,3.003-14.566,5.748-22.208,8.235
				c0,0-0.788-0.379-2.231-1.21c-0.13-0.071-0.258-0.153-0.397-0.238c-0.13-0.071-0.271-0.144-0.411-0.229
				c-0.624-0.362-1.331-0.798-2.134-1.288c-0.364-0.22-0.738-0.453-1.131-0.715c-1.303-0.817-2.792-1.799-4.431-2.926
				c-0.549-0.385-1.129-0.799-1.72-1.214c-1.96-1.399-4.098-2.997-6.386-4.813c-0.354-0.278-0.697-0.554-1.051-0.831
				c-1.257-1.011-2.561-2.09-3.902-3.224c-0.772-0.662-1.563-1.352-2.376-2.057c-0.042-0.031-0.082-0.074-0.124-0.105
				c-0.81-0.717-1.64-1.461-2.488-2.231c-0.89-0.803-1.787-1.63-2.69-2.494c-0.458-0.428-0.914-0.866-1.37-1.305
				c-2.757-2.648-5.613-5.541-8.529-8.694c-0.49-0.517-0.976-1.056-1.463-1.583c-0.068-0.084-0.139-0.156-0.208-0.228
				c-0.814-0.896-1.635-1.816-2.454-2.749c-2.574-2.937-5.185-6.07-7.819-9.398c-0.503-0.638-1.017-1.289-1.518-1.938
				c-2.73-3.524-5.458-7.262-8.19-11.237c-0.415-0.599-0.829-1.207-1.24-1.829c-1.165-1.719-2.323-3.474-3.473-5.273
				c-0.362-0.564-0.733-1.144-1.091-1.73c-1.065-1.679-2.113-3.389-3.165-5.137c-0.446-0.758-0.901-1.529-1.355-2.313
				c-0.392-0.665-0.781-1.342-1.17-2.019c-0.416-0.729-0.843-1.459-1.245-2.198c-1.179-2.103-2.34-4.237-3.493-6.419
				c-0.489-0.921-0.965-1.839-1.449-2.782c-2.438-4.754-4.822-9.738-7.132-14.934c-0.434-0.958-0.854-1.926-1.274-2.893
				c-0.538-1.238-1.063-2.486-1.585-3.746c-0.366-0.874-0.731-1.749-1.084-2.633c-1.204-2.951-2.373-5.968-3.518-9.052
				c-0.417-1.121-0.829-2.266-1.241-3.41c-0.412-1.144-0.822-2.3-1.219-3.466c-0.805-2.332-1.603-4.699-2.384-7.1
				c-0.379-1.197-0.755-2.406-1.13-3.627c-0.218-0.705-0.438-1.399-0.644-2.103c-0.279-0.894-0.548-1.774-0.802-2.677
				c-0.265-0.904-0.531-1.808-0.782-2.721c-0.359-1.242-0.707-2.481-1.05-3.744c-0.331-1.201-0.661-2.402-0.976-3.625
				c-0.708-2.671-1.384-5.385-2.041-8.144c-0.329-1.343-0.647-2.685-0.948-4.047c-0.278-1.227-0.564-2.479-0.827-3.728
				c-0.04-0.174-0.08-0.348-0.12-0.521c-0.285-1.323-0.567-2.658-0.846-4.016c-0.223-1.075-0.432-2.159-0.652-3.245
				c-0.341-1.738-0.668-3.485-0.992-5.256c-0.264-1.438-0.526-2.889-0.774-4.349c-0.25-1.448-0.501-2.896-0.736-4.365
				c0.004-0.023-0.003-0.048-0.011-0.073c-0.227-1.444-0.455-2.888-0.68-4.344c-0.003-0.048-0.009-0.085-0.014-0.121
				c-0.23-1.492-0.447-2.994-0.653-4.493c-0.217-1.502-0.409-3.011-0.612-4.521c-0.003-0.049-0.008-0.085-0.014-0.121
				c-0.199-1.535-0.387-3.066-0.573-4.61c-0.178-1.458-0.343-2.915-0.505-4.396c-0.015-0.181-0.041-0.363-0.056-0.545
				c-0.167-1.516-0.322-3.03-0.474-4.567c-0.164-1.6-0.312-3.22-0.447-4.849c-0.148-1.62-0.28-3.261-0.411-4.913
				c-0.132-1.642-0.249-3.304-0.364-4.977c-0.107-1.589-0.213-3.177-0.303-4.787c-0.01-0.145-0.018-0.3-0.027-0.444
				c-0.098-1.635-0.185-3.268-0.255-4.921c-0.068-1.403-0.135-2.818-0.199-4.245c-0.048-1.316-0.097-2.634-0.141-3.973
				c-0.038-1.244-0.075-2.487-0.111-3.742c-0.008-0.418-0.014-0.847-0.022-1.264c-0.035-1.195-0.067-2.402-0.074-3.616
				c-0.032-1.409-0.05-2.827-0.054-4.255c-0.024-1.717-0.022-3.44-0.031-5.178c0.002-0.143,0.002-0.273,0.003-0.415
				c-0.001-1.772,0.01-3.554,0.026-5.358c0.012-1.52,0.038-3.049,0.065-4.59c0.057-3.354,0.142-6.729,0.259-10.155
				c0.025-1.065,0.074-2.127,0.113-3.202c0.052-1.346,0.118-2.701,0.174-4.07c0.016-0.354,0.031-0.696,0.046-1.05
				c0.091-1.827,0.185-3.665,0.289-5.501c0.096-1.719,0.203-3.436,0.312-5.163c0.026-0.542,0.064-1.083,0.102-1.623
				c0.067-1.034,0.134-2.068,0.213-3.101c0.075-1.211,0.165-2.432,0.265-3.65c0.111-1.478,0.234-2.953,0.36-4.441
				c0.165-2.039,0.344-4.088,0.534-6.134c0.181-2.061,0.387-4.128,0.595-6.207c0.21-2.09,0.42-4.181,0.655-6.278
				c0.222-2.089,0.468-4.185,0.705-6.294l0.019-0.104c0.25-2.119,0.501-4.238,0.779-6.376c0.271-2.162,0.553-4.323,0.849-6.493
				c0.284-2.173,0.591-4.341,0.903-6.532l0.021-0.115c0.31-2.18,0.632-4.368,0.969-6.566c0.329-2.225,0.686-4.467,1.044-6.721
				c0.715-4.496,1.476-9.057,2.292-13.653c119.62,16.085,172.866-20.234,180.699-26.231c0.206-0.152,0.373-0.289,0.522-0.393
				c3.765,6.23,39.747,60.688,159.988,88.049C752.273,1458.374,751.209,1464.806,749.981,1471.623z"/>
			<path style="fill:#699DEE;" d="M593.7,1363.921l-76.07,422.398c-0.787-0.45-1.776-1.033-2.942-1.755
				c-0.364-0.22-0.738-0.453-1.131-0.715c-1.303-0.817-2.792-1.799-4.431-2.926c-0.549-0.385-1.129-0.799-1.72-1.214
				c-1.96-1.399-4.098-2.997-6.386-4.813c-0.354-0.278-0.697-0.554-1.051-0.831c-1.257-1.011-2.561-2.09-3.902-3.224
				c-0.772-0.662-1.563-1.352-2.376-2.057c-0.042-0.031-0.082-0.074-0.124-0.105c-0.81-0.717-1.64-1.461-2.488-2.231
				c-0.89-0.803-1.787-1.63-2.69-2.494c-0.458-0.428-0.914-0.866-1.37-1.305c-2.757-2.648-5.613-5.541-8.529-8.694
				c-0.49-0.517-0.976-1.056-1.463-1.583c-0.068-0.084-0.139-0.156-0.208-0.228c-0.814-0.896-1.635-1.816-2.454-2.749
				c-2.574-2.937-5.185-6.07-7.819-9.398c-0.503-0.638-1.017-1.289-1.518-1.938c-2.73-3.524-5.458-7.262-8.19-11.237
				c-0.415-0.599-0.829-1.207-1.24-1.829c-1.165-1.719-2.323-3.474-3.473-5.273c-0.362-0.564-0.733-1.144-1.091-1.73
				c-1.065-1.679-2.113-3.389-3.165-5.137c-0.446-0.758-0.901-1.529-1.355-2.313c-0.392-0.665-0.781-1.342-1.17-2.019
				c-0.416-0.729-0.843-1.459-1.245-2.198c-1.179-2.103-2.34-4.237-3.493-6.419c-0.489-0.921-0.965-1.839-1.449-2.782
				c-2.438-4.754-4.822-9.738-7.132-14.934c-0.434-0.958-0.854-1.926-1.274-2.893c-0.538-1.238-1.063-2.486-1.585-3.746
				c-0.366-0.874-0.731-1.749-1.084-2.633c-1.204-2.951-2.373-5.968-3.518-9.052c-0.417-1.121-0.829-2.266-1.241-3.41
				c-0.412-1.144-0.822-2.3-1.219-3.466c-0.805-2.332-1.603-4.699-2.384-7.1c-0.379-1.197-0.755-2.406-1.13-3.627
				c-0.218-0.705-0.438-1.399-0.644-2.103c-0.279-0.894-0.548-1.774-0.802-2.677c-0.265-0.904-0.531-1.808-0.782-2.721
				c-0.359-1.242-0.707-2.481-1.05-3.744c-0.331-1.201-0.661-2.402-0.976-3.625c-0.708-2.671-1.384-5.385-2.041-8.144
				c-0.329-1.343-0.647-2.685-0.948-4.047c-0.278-1.227-0.564-2.479-0.827-3.728c-0.04-0.174-0.08-0.348-0.12-0.521
				c-0.285-1.323-0.567-2.658-0.846-4.016c-0.223-1.075-0.432-2.159-0.652-3.245c-0.341-1.738-0.668-3.485-0.992-5.256
				c-0.264-1.438-0.526-2.889-0.774-4.349c-0.25-1.448-0.501-2.896-0.736-4.365c0.004-0.023-0.003-0.048-0.011-0.073
				c-0.227-1.444-0.455-2.888-0.68-4.344c-0.003-0.048-0.009-0.085-0.014-0.121c-0.23-1.492-0.447-2.994-0.653-4.493
				c-0.217-1.502-0.409-3.011-0.612-4.521c-0.003-0.049-0.008-0.085-0.014-0.121c-0.199-1.535-0.387-3.066-0.573-4.61
				c-0.178-1.458-0.343-2.915-0.505-4.396c-0.015-0.181-0.041-0.363-0.056-0.545c-0.167-1.516-0.322-3.03-0.474-4.567
				c-0.164-1.6-0.312-3.22-0.447-4.849c-0.148-1.62-0.28-3.261-0.411-4.913c-0.132-1.642-0.249-3.304-0.364-4.977
				c-0.107-1.589-0.213-3.177-0.303-4.787c-0.01-0.145-0.018-0.3-0.027-0.444c-0.098-1.635-0.185-3.268-0.255-4.921
				c-0.068-1.403-0.135-2.818-0.199-4.245c-0.048-1.316-0.097-2.634-0.141-3.973c-0.038-1.244-0.075-2.487-0.111-3.742
				c-0.008-0.418-0.014-0.847-0.022-1.264c-0.035-1.195-0.067-2.402-0.074-3.616c-0.032-1.409-0.05-2.827-0.054-4.255
				c-0.024-1.717-0.022-3.44-0.031-5.178c0.002-0.143,0.002-0.273,0.003-0.415c-0.001-1.772,0.01-3.554,0.026-5.358
				c0.012-1.52,0.038-3.049,0.065-4.59c0.057-3.354,0.142-6.729,0.259-10.155c0.025-1.065,0.074-2.127,0.113-3.202
				c0.052-1.346,0.118-2.701,0.174-4.07c0.016-0.354,0.031-0.696,0.046-1.05c0.091-1.827,0.185-3.665,0.289-5.501
				c0.096-1.719,0.203-3.436,0.312-5.163c0.026-0.542,0.064-1.083,0.102-1.623c0.067-1.034,0.134-2.068,0.213-3.101
				c0.075-1.211,0.165-2.432,0.265-3.65c0.111-1.478,0.234-2.953,0.36-4.441c0.165-2.039,0.344-4.088,0.534-6.134
				c0.181-2.061,0.387-4.128,0.595-6.207c0.21-2.09,0.42-4.181,0.655-6.278c0.222-2.089,0.468-4.185,0.705-6.294l0.019-0.104
				c0.25-2.119,0.501-4.238,0.779-6.376c0.271-2.162,0.553-4.323,0.849-6.493c0.284-2.173,0.591-4.341,0.903-6.532l0.021-0.115
				c0.31-2.18,0.632-4.368,0.969-6.566c0.329-2.225,0.686-4.467,1.044-6.721c0.715-4.496,1.476-9.057,2.292-13.653
				C542.132,1408.485,593.7,1363.921,593.7,1363.921z"/>
		</g>
	</g>
</g>
</svg>
