<?xml version="1.0" encoding="utf-8" ?>
<svg xmlns="http://www.w3.org/2000/svg" xmlns:xlink="http://www.w3.org/1999/xlink" width="1036" height="1036">
	<path transform="scale(1.01189 1.01189)" d="M974.952 609.146C977.222 611.637 979.166 614.548 981.183 617.254L986.816 625.456L987.951 627.668C997.845 644.128 1000.95 659.615 1005.21 677.885C991.083 686.77 978.225 690.091 961.719 691.44C977.348 693.585 991.608 692.365 1006.91 688.4C1008.28 703.239 1008.65 717.735 1005.81 732.453C1004.81 737.636 1002.26 743.436 1001.93 748.575L1000.61 752.015C993.905 771.029 980.646 787.811 962.249 796.578C957.835 798.681 953.087 800.481 948.985 803.151C962.353 803.16 975.869 802.77 989.216 803.374C993.743 803.388 1007.5 802.617 1010.88 803.731C1011.06 804.846 1011.18 804.682 1010.61 805.784C1004.97 807.029 998.122 805.973 992.287 805.927L955.524 805.925Q865.283 806.505 775.041 806.112L231.392 806.424L65.9537 806.174C43.9896 806.193 21.958 805.896 0 806.326L0 803.68L69.9908 803.7C81.8485 803.734 93.721 804.17 105.576 803.924C102.793 802.311 99.2731 801.66 96.3378 800.197C82.9999 793.551 69.6919 780.132 64.9131 765.861C76.3264 763.524 87.0995 757.802 96.6267 751.269C85.6879 753.628 74.8685 755.606 63.7206 756.622C64.496 739.303 63.5701 723.992 54.8512 708.517C53.1344 705.47 50.525 702.897 48.8944 699.81L48.5239 699.092C49.9863 693.423 51.6774 686.259 56.9726 682.93C61.1877 680.281 66.62 680.888 71.2072 682.118C84.5389 685.692 96.6254 694.48 106.452 703.896C109.433 706.753 112.14 710.101 115.214 712.818C116.067 714.147 116.576 714.512 116.204 716.143C114.654 722.931 108.065 730.405 104.45 736.347C111.895 732.545 117.55 728.064 123.471 722.159C129.059 731.11 134.162 739.35 137.466 749.444C145.666 742.737 157.097 734.52 167.229 731.131L171.201 729.773C173.727 729.358 176.056 728.683 178.507 729.725C180.854 730.674 182.18 731.65 183.149 734.056C183.667 735.343 183.966 736.739 184.287 738.087C182.726 744.027 180.186 749.382 177.455 754.86C176.613 756.097 176.365 757.015 176.028 758.443C173.733 772.652 170.069 790.051 157.741 799.173C155.063 801.154 152.059 802.479 148.979 803.707C168.041 804.696 187.542 803.907 206.647 803.879L309.848 803.893L689.024 803.491L812.615 803.483C833.658 803.494 854.921 802.767 875.923 803.622C876.699 798.944 877.439 794.312 878.949 789.805C882.975 793.74 889.039 796.497 894.585 797.314C900.411 798.172 906.146 796.54 910.735 792.857Q911.15 792.527 911.547 792.176Q911.944 791.825 912.323 791.454Q912.701 791.083 913.06 790.693Q913.418 790.302 913.757 789.894Q914.095 789.486 914.411 789.061Q914.727 788.636 915.021 788.195Q915.315 787.754 915.586 787.298Q915.857 786.842 916.104 786.373Q916.351 785.904 916.573 785.423Q916.795 784.942 916.992 784.45Q917.189 783.958 917.361 783.456Q917.532 782.955 917.677 782.445Q917.823 781.935 917.941 781.419Q918.06 780.902 918.151 780.38Q918.243 779.858 918.307 779.332Q918.372 778.806 918.409 778.277C919.571 762.799 903.725 749.562 894.006 739.461C888.098 733.322 882.058 727.015 876.627 720.453L878.331 718.904L879.204 715.692C881.685 697.175 887.336 677.791 896.893 661.72C899.678 657.039 903.12 652.626 906.229 648.153Q910.338 643.391 914.886 639.047Q919.433 634.703 924.378 630.816L927.204 628.478C939.914 618.206 958.63 610.922 974.952 609.146Z"/>
	<path fill="#7C3AED" transform="scale(1.01189 1.01189)" d="M178.507 729.725C180.854 730.674 182.18 731.65 183.149 734.056C183.667 735.343 183.966 736.739 184.287 738.087C182.726 744.027 180.186 749.382 177.455 754.86C176.613 756.097 176.365 757.015 176.028 758.443C173.733 772.652 170.069 790.051 157.741 799.173C155.063 801.154 152.059 802.479 148.979 803.707C145.255 803.361 141.319 803.794 137.578 803.973Q139.312 799.485 141.315 795.11Q143.317 790.735 145.581 786.49Q147.846 782.244 150.363 778.144Q152.88 774.043 155.641 770.103C162.862 759.953 173.187 749.336 177.647 737.662C178.362 735.79 179.672 732.58 178.851 730.674L178.507 729.725Z"/>
	<path fill="#7C3AED" transform="scale(1.01189 1.01189)" d="M974.952 609.146C977.222 611.637 979.166 614.548 981.183 617.254L986.816 625.456C968.248 638.824 961.669 651.113 952.806 671.658C948.204 653.62 942.572 640.1 927.204 628.478C939.914 618.206 958.63 610.922 974.952 609.146Z"/>
	<path fill="#7C3AED" transform="scale(1.01189 1.01189)" d="M878.331 718.904C896.465 722.59 911.542 731.927 921.859 747.45C926.249 754.056 936.46 773.156 937.907 780.66C939.373 788.266 939.329 796.015 941.011 803.654Q919.932 803.572 898.855 803.913C891.424 803.982 883.254 804.689 875.923 803.622C876.699 798.944 877.439 794.312 878.949 789.805C882.975 793.74 889.039 796.497 894.585 797.314C900.411 798.172 906.146 796.54 910.735 792.857Q911.15 792.527 911.547 792.176Q911.944 791.825 912.323 791.454Q912.701 791.083 913.06 790.693Q913.418 790.302 913.757 789.894Q914.095 789.486 914.411 789.061Q914.727 788.636 915.021 788.195Q915.315 787.754 915.586 787.298Q915.857 786.842 916.104 786.373Q916.351 785.904 916.573 785.423Q916.795 784.942 916.992 784.45Q917.189 783.958 917.361 783.456Q917.532 782.955 917.677 782.445Q917.823 781.935 917.941 781.419Q918.06 780.902 918.151 780.38Q918.243 779.858 918.307 779.332Q918.372 778.806 918.409 778.277C919.571 762.799 903.725 749.562 894.006 739.461C888.098 733.322 882.058 727.015 876.627 720.453L878.331 718.904Z"/>
	<path fill="#7C3AED" transform="scale(1.01189 1.01189)" d="M943.772 803.54Q943.171 799.529 942.752 795.495C941.168 779.642 939.133 772.222 949.941 759.229C956.894 750.871 967.359 743.249 978.529 742.447C987.79 741.781 994.098 746.17 1000.61 752.015C993.905 771.029 980.646 787.811 962.249 796.578C957.835 798.681 953.087 800.481 948.985 803.151C962.353 803.16 975.869 802.77 989.216 803.374C974.141 804.028 958.881 803.355 943.772 803.54Z"/>
	<path fill="#7C3AED" transform="scale(1.01189 1.01189)" d="M906.229 648.153Q910.338 643.391 914.886 639.047Q919.433 634.703 924.378 630.816C935.935 637.132 943.944 651.357 947.574 663.573C948.89 668.002 950.223 673.319 949.681 677.963C949.07 683.194 946.918 688.653 945.579 693.76Q943.01 703.838 941.35 714.105C938.166 733.468 938.779 752.458 937.822 771.943C928.127 748.858 917.4 729.545 893.085 719.62C888.662 717.815 883.928 716.426 879.204 715.692C881.685 697.175 887.336 677.791 896.893 661.72C899.678 657.039 903.12 652.626 906.229 648.153Z"/>
	<path fill="#7C3AED" transform="scale(1.01189 1.01189)" d="M987.951 627.668C997.845 644.128 1000.95 659.615 1005.21 677.885C991.083 686.77 978.225 690.091 961.719 691.44C977.348 693.585 991.608 692.365 1006.91 688.4C1008.28 703.239 1008.65 717.735 1005.81 732.453C1004.81 737.636 1002.26 743.436 1001.93 748.575C1000.15 746.804 998.019 745.197 995.908 743.838C989.143 739.481 981.368 738.017 973.492 739.839C958.976 743.197 948.943 754.103 941.423 766.3C941.476 753.658 941.536 740.9 942.733 728.306C945.431 699.905 953.891 668.623 970.521 645.169Q972.823 641.982 975.51 639.112Q978.198 636.242 981.228 633.737C983.206 632.084 985.908 630.465 987.437 628.393C987.613 628.155 987.78 627.909 987.951 627.668Z"/>
	<defs>
		<linearGradient id="gradient_0" gradientUnits="userSpaceOnUse" x1="61.868099" y1="751.15314" x2="174.31566" y2="720.23663">
			<stop offset="0" stop-color="#501EE5"/>
			<stop offset="1" stop-color="#8A52FF"/>
		</linearGradient>
	</defs>
	<path fill="url(#gradient_0)" transform="scale(1.01189 1.01189)" d="M48.5239 699.092C49.9863 693.423 51.6774 686.259 56.9726 682.93C61.1877 680.281 66.62 680.888 71.2072 682.118C84.5389 685.692 96.6254 694.48 106.452 703.896C109.433 706.753 112.14 710.101 115.214 712.818C116.067 714.147 116.576 714.512 116.204 716.143C114.654 722.931 108.065 730.405 104.45 736.347C111.895 732.545 117.55 728.064 123.471 722.159C129.059 731.11 134.162 739.35 137.466 749.444C145.666 742.737 157.097 734.52 167.229 731.131L171.201 729.773C173.727 729.358 176.056 728.683 178.507 729.725L178.851 730.674C176.732 735.06 174.587 740.974 171.437 744.657C161.843 759.452 150.214 772.125 142.089 787.988C140.803 790.499 135.436 803.511 134.072 803.829C133.255 804.02 133.571 803.969 132.655 803.913C128.66 804.054 124.639 803.986 120.64 804.011C119.817 774.047 104.46 741.159 86.1839 717.792C81.4115 711.69 75.9774 706.19 70.4711 700.755C68.0321 698.348 63.0101 692.487 59.6275 692.509L59.5042 692.338C61.5416 696.663 65.7253 699.119 69.068 702.347Q73.3532 706.507 77.3137 710.978Q79.4639 713.392 81.5189 715.888Q83.574 718.384 85.531 720.957Q87.4879 723.531 89.3438 726.178Q91.1996 728.825 92.9516 731.543Q94.7036 734.26 96.3491 737.043Q97.9946 739.826 99.5311 742.67Q101.068 745.515 102.493 748.417Q103.918 751.319 105.23 754.273Q106.542 757.228 107.738 760.232Q108.935 763.235 110.014 766.283Q111.094 769.33 112.054 772.417Q113.015 775.504 113.855 778.626Q114.695 781.748 115.414 784.9Q116.133 788.052 116.729 791.23Q117.326 794.407 117.798 797.606Q118.271 800.804 118.62 804.018L105.576 803.924C102.793 802.311 99.2731 801.66 96.3378 800.197C82.9999 793.551 69.6919 780.132 64.9131 765.861C76.3264 763.524 87.0995 757.802 96.6267 751.269C85.6879 753.628 74.8685 755.606 63.7206 756.622C64.496 739.303 63.5701 723.992 54.8512 708.517C53.1344 705.47 50.525 702.897 48.8944 699.81L48.5239 699.092Z"/>
	<path fill="#8B5CF6" transform="scale(1.01189 1.01189)" d="M136.821 761.92C144.602 757.29 163.022 744.491 171.437 744.657C161.843 759.452 150.214 772.125 142.089 787.988C140.803 790.499 135.436 803.511 134.072 803.829C133.255 804.02 133.571 803.969 132.655 803.913L126.553 803.261C127.794 803.005 127.217 803.154 128.289 802.833C128.023 802.304 127.253 800.918 127.415 800.315C127.975 798.226 130.001 795.576 130.87 793.391C134.824 783.445 135.6 772.465 136.821 761.92Z"/>
	<path fill="#FBBF24" transform="scale(1.01189 1.01189)" d="M812.534 251.605C830.811 252.037 849.17 251.695 867.458 251.8C874.793 251.842 883.144 250.909 890.308 252.474C894.388 253.365 898.304 255.692 901.148 258.733C903.826 261.594 905.059 264.793 905.716 268.609C907.153 276.949 906.369 286.247 906.36 294.739L906.295 341.479L905.977 512.391C906.012 557.632 905.643 602.918 906.229 648.153C903.12 652.626 899.678 657.039 896.893 661.72C887.336 677.791 881.685 697.175 879.204 715.692L878.331 718.904L876.627 720.453C882.058 727.015 888.098 733.322 894.006 739.461C903.725 749.562 919.571 762.799 918.409 778.277Q918.372 778.806 918.307 779.332Q918.243 779.858 918.151 780.38Q918.06 780.902 917.941 781.419Q917.823 781.935 917.677 782.445Q917.532 782.955 917.361 783.456Q917.19 783.958 916.993 784.45Q916.795 784.942 916.573 785.423Q916.351 785.904 916.104 786.373Q915.857 786.842 915.586 787.298Q915.316 787.754 915.022 788.195Q914.728 788.636 914.411 789.061Q914.095 789.486 913.757 789.894Q913.418 790.302 913.06 790.693Q912.701 791.083 912.323 791.454Q911.944 791.825 911.547 792.176Q911.15 792.527 910.735 792.857C906.146 796.54 900.411 798.172 894.585 797.314C889.039 796.497 882.975 793.74 878.949 789.805C877.439 794.312 876.699 798.944 875.923 803.622C854.921 802.767 833.658 803.494 812.615 803.483L689.024 803.491L309.848 803.893L206.647 803.879C187.542 803.907 168.041 804.696 148.979 803.707C152.059 802.479 155.063 801.154 157.741 799.173C170.069 790.051 173.733 772.652 176.028 758.443C176.365 757.015 176.613 756.097 177.455 754.86C180.186 749.382 182.726 744.027 184.287 738.087C183.966 736.739 183.667 735.343 183.149 734.056C182.18 731.65 180.854 730.674 178.507 729.725C176.056 728.683 173.727 729.358 171.201 729.773L167.229 731.131C157.097 734.52 145.666 742.737 137.466 749.444C134.162 739.35 129.059 731.11 123.471 722.159C122.142 719.383 119.652 717.044 117.605 714.789C117.684 712.738 117.647 710.722 117.557 708.672C118.425 697.36 117.74 685.475 117.783 674.105L117.885 602.407L117.791 362.645C118.102 340.853 117.8 319.02 117.789 297.224C117.784 288.773 116.79 276.463 118.259 268.388C118.932 264.685 120.905 261.067 123.526 258.386C126.038 255.816 129.291 253.938 132.855 253.338C141.722 251.845 157.379 252.719 166.863 252.673L244.326 252.499C276.248 253.207 308.32 252.418 340.262 252.479L582.121 252.324L737.659 252.207C762.054 252.107 788.341 253.029 812.534 251.605Z"/>
	<path fill="#7C3AED" transform="scale(1.01189 1.01189)" d="M877.216 264.167C881.335 265.778 883.656 267.393 885.512 271.512C888.169 277.412 887.906 294.523 885.605 300.684C884.692 303.13 883.236 304.506 881.132 305.953L881.121 304.073C881.358 303.83 881.6 303.591 881.834 303.345C886.915 298.01 884.636 280.272 884.42 272.824C883.702 271.586 882.87 270.307 881.924 269.232C879.73 266.737 876.875 266.399 873.762 266.092C875.306 265.884 876.075 265.131 877.216 264.167Z"/>
	<path fill="white" transform="scale(1.01189 1.01189)" d="M829.437 595.019C835.359 594.974 851.882 593.891 856.565 595.716C856.966 596.208 856.803 595.884 856.825 596.772C856.079 597.897 855.538 598.491 854.192 598.867C851.16 599.715 833.495 599.107 829.338 598.868L829.437 595.019Z"/>
	<path fill="#7C3AED" transform="scale(1.01189 1.01189)" d="M156.017 280.082C157.913 279.989 159.773 279.879 161.615 280.43C164.199 281.204 166.43 282.95 167.624 285.389C168.775 287.74 168.818 290.426 167.912 292.863C166.656 296.244 164.46 297.787 161.304 299.254C159.647 299.526 158.02 299.672 156.386 299.205C153.843 298.478 151.704 296.956 150.423 294.617Q150.182 294.173 149.986 293.708Q149.79 293.243 149.64 292.761Q149.491 292.278 149.389 291.784Q149.288 291.289 149.235 290.787Q149.183 290.285 149.18 289.78Q149.177 289.275 149.224 288.772Q149.27 288.269 149.366 287.774Q149.462 287.278 149.606 286.794C150.651 283.292 152.95 281.763 156.017 280.082Z"/>
	<path fill="#7C3AED" transform="scale(1.01189 1.01189)" d="M203.522 280.058C205.126 279.928 206.916 279.683 208.496 280.06C210.892 280.633 213.132 282.308 214.339 284.453C215.671 286.819 215.88 289.746 215.146 292.336C214.036 296.255 211.686 297.944 208.319 299.857C206.972 299.928 205.822 299.908 204.498 299.607C201.724 298.975 199.251 297.597 197.765 295.098C196.392 292.791 196.112 290.001 196.83 287.43C197.879 283.679 200.287 281.926 203.522 280.058Z"/>
	<path fill="#7C3AED" transform="scale(1.01189 1.01189)" d="M251.906 280.028C253.388 279.969 255.018 279.837 256.488 280.063C259.133 280.471 261.882 282.22 263.331 284.469C264.744 286.662 265.063 289.332 264.366 291.823C263.275 295.72 260.646 297.541 257.3 299.433C255.64 299.713 254.238 299.862 252.584 299.401C249.964 298.669 247.797 297.132 246.472 294.732Q246.224 294.277 246.023 293.799Q245.822 293.322 245.67 292.826Q245.518 292.331 245.417 291.823Q245.315 291.315 245.266 290.799Q245.216 290.283 245.218 289.765Q245.22 289.247 245.275 288.732Q245.329 288.216 245.435 287.709Q245.541 287.202 245.697 286.708C246.741 283.303 248.884 281.644 251.906 280.028Z"/>
	<path fill="#8027A4" transform="scale(1.01189 1.01189)" d="M312.252 264.552C317.911 262.829 364.87 263.951 373.691 263.952L543.342 263.906L769.267 263.998L840.674 263.983C852.729 263.979 865.23 263.26 877.216 264.167C876.075 265.131 875.306 265.884 873.762 266.092C862.524 266.703 850.895 266.083 839.62 266.069L770.194 266.02L561.137 265.828L395.946 265.834L344.402 265.771C334.228 265.762 323.754 265.272 313.624 266.188L312.252 264.552Z"/>
	<path fill="#8027A4" transform="scale(1.01189 1.01189)" d="M397.151 307.544C382.234 308.177 367.084 307.611 352.145 307.59C340.943 307.575 329.474 308.205 318.321 307.69C316.236 307.593 314.111 307.283 312.135 306.597C309.531 305.693 307.887 303.324 306.837 300.882C304.322 295.029 304.405 276.163 306.871 270.076C307.961 267.382 309.628 265.728 312.252 264.552L313.624 266.188C310.945 267.32 309.135 268.429 308.059 271.256C306.009 276.636 306.006 295.122 308.422 300.359C309.467 302.623 312.278 304.236 314.336 305.431C336.262 305.832 358.202 305.293 380.127 305.655L598.663 305.452L669.524 305.474C681.536 305.475 693.923 304.856 705.898 305.578Q729.543 305.405 753.188 305.544C762.305 305.562 771.635 305.168 780.718 305.639C803.397 304.953 826.281 305.566 848.979 305.565C858.067 305.565 867.681 306.197 876.708 305.375C878.303 305.23 879.672 304.727 881.121 304.073L881.132 305.953C879.774 306.999 878.799 307.306 877.09 307.467C865.352 308.571 850.911 307.59 838.834 307.586L810.788 307.588C805.955 307.588 800.952 307.848 796.139 307.475C785.508 307.842 774.795 307.584 764.152 307.579L706.334 307.559L543.429 307.475C527.255 307.65 510.843 308.045 494.683 307.455C481.327 308.087 467.729 307.609 454.348 307.641C435.311 307.686 416.18 308.043 397.151 307.544Z"/>
	<path fill="#7C3AED" transform="scale(1.01189 1.01189)" d="M774.178 354.202C779.192 353.492 785.161 353.891 790.168 354.539C808.899 356.963 825.454 367.468 836.772 382.415C848.317 397.662 852.116 416.138 849.453 434.909C847.372 449.577 839.283 466.755 827.26 475.872C825.097 469.237 822.175 462.54 817.424 457.328C808.898 447.976 797.325 444.75 785.091 444.214C774.279 443.981 763.877 443.934 754.022 448.974C742.618 454.808 736.606 464.033 732.731 475.921Q731.505 474.862 730.331 473.747Q729.157 472.631 728.036 471.462Q726.916 470.292 725.853 469.07Q724.789 467.849 723.784 466.578Q722.78 465.308 721.836 463.991Q720.893 462.675 720.013 461.315Q719.133 459.955 718.318 458.556Q717.503 457.156 716.755 455.719Q716.008 454.282 715.329 452.812Q714.65 451.341 714.042 449.84Q713.433 448.339 712.896 446.811Q712.359 445.283 711.895 443.731Q711.432 442.179 711.041 440.607Q710.651 439.035 710.336 437.447Q710.021 435.858 709.781 434.256Q709.542 432.654 709.378 431.043C707.483 413.747 713.986 393.906 724.98 380.526Q726.108 379.135 727.304 377.802Q728.5 376.469 729.761 375.197Q731.022 373.925 732.344 372.717Q733.667 371.51 735.048 370.369Q736.428 369.229 737.864 368.158Q739.3 367.088 740.788 366.09Q742.275 365.093 743.81 364.17Q745.345 363.248 746.925 362.403Q748.504 361.558 750.123 360.793Q751.742 360.027 753.397 359.344Q755.052 358.66 756.74 358.059Q758.427 357.458 760.142 356.942Q761.857 356.426 763.595 355.996Q765.334 355.566 767.092 355.223Q768.849 354.879 770.622 354.624Q772.395 354.369 774.178 354.202Z"/>
	<path transform="scale(1.01189 1.01189)" d="M781.799 384.703C786.896 384.921 791.589 386.037 795.754 389.13Q796.19 389.456 796.609 389.803Q797.028 390.15 797.429 390.518Q797.83 390.886 798.212 391.273Q798.595 391.66 798.957 392.066Q799.32 392.471 799.662 392.895Q800.004 393.318 800.324 393.758Q800.645 394.197 800.943 394.653Q801.241 395.108 801.516 395.577Q801.791 396.047 802.043 396.529Q802.294 397.012 802.521 397.506Q802.748 398.001 802.951 398.506Q803.153 399.011 803.33 399.526Q803.506 400.04 803.657 400.563Q803.808 401.086 803.933 401.616Q804.058 402.145 804.156 402.68Q804.255 403.216 804.326 403.755C805.127 409.982 802.911 416.133 798.937 420.903C794.576 426.137 789.321 428.604 782.665 429.235C777.317 429.016 772.642 428.008 768.303 424.677Q767.868 424.337 767.45 423.977Q767.032 423.617 766.632 423.236Q766.232 422.856 765.851 422.457Q765.469 422.058 765.108 421.641Q764.746 421.224 764.405 420.79Q764.064 420.357 763.745 419.907Q763.425 419.457 763.128 418.992Q762.83 418.527 762.555 418.048Q762.281 417.57 762.029 417.078Q761.778 416.587 761.551 416.084Q761.323 415.581 761.121 415.068Q760.918 414.555 760.74 414.032Q760.563 413.51 760.411 412.979Q760.258 412.449 760.132 411.911Q760.006 411.374 759.905 410.832Q759.805 410.289 759.731 409.742Q759.66 409.195 759.617 408.646Q759.573 408.097 759.557 407.546Q759.542 406.995 759.554 406.444Q759.566 405.893 759.605 405.344Q759.645 404.794 759.712 404.247Q759.779 403.7 759.874 403.157Q759.968 402.614 760.09 402.077Q760.212 401.539 760.36 401.009Q760.509 400.478 760.684 399.956Q760.859 399.433 761.06 398.92Q761.261 398.407 761.488 397.905Q761.715 397.403 761.966 396.912Q762.218 396.422 762.494 395.945Q762.77 395.468 763.069 395.005Q763.369 394.543 763.691 394.096Q764.013 393.649 764.358 393.219C768.742 387.741 774.999 385.332 781.799 384.703Z"/>
	<path fill="white" transform="scale(1.01189 1.01189)" d="M313.624 266.188C323.754 265.272 334.228 265.762 344.402 265.771L395.946 265.834L561.137 265.828L770.194 266.02L839.62 266.069C850.895 266.083 862.524 266.703 873.762 266.092C876.875 266.399 879.73 266.737 881.924 269.232C882.87 270.307 883.702 271.586 884.42 272.824C884.636 280.272 886.915 298.01 881.834 303.345C881.6 303.591 881.358 303.83 881.121 304.073C879.672 304.727 878.303 305.23 876.708 305.375C867.681 306.197 858.067 305.565 848.979 305.565C826.281 305.566 803.397 304.953 780.718 305.639C771.635 305.168 762.305 305.562 753.188 305.544Q729.543 305.405 705.898 305.578C693.923 304.856 681.536 305.475 669.524 305.474L598.663 305.452L380.127 305.655C358.202 305.293 336.262 305.832 314.336 305.431C312.278 304.236 309.467 302.623 308.422 300.359C306.006 295.122 306.009 276.636 308.059 271.256C309.135 268.429 310.945 267.32 313.624 266.188Z"/>
	<path transform="scale(1.01189 1.01189)" d="M741.134 511.309C766.926 511.861 787.831 517.739 806.149 536.858C821.626 553.012 829.062 572.786 829.437 595.019L829.338 598.868C828.265 607.266 826.991 615.134 824.89 623.354C837.191 632.292 846.748 647.163 849.075 662.231Q849.516 664.955 849.673 667.71Q849.829 670.465 849.699 673.222Q849.569 675.978 849.154 678.706Q848.738 681.435 848.042 684.105C850.747 688.94 854.78 693.384 858.254 697.692C864.373 705.279 870.604 712.791 876.627 720.453C882.058 727.015 888.098 733.322 894.006 739.461C903.725 749.562 919.571 762.799 918.409 778.277Q918.372 778.806 918.307 779.332Q918.243 779.858 918.151 780.38Q918.06 780.902 917.941 781.419Q917.823 781.935 917.677 782.445Q917.532 782.955 917.361 783.456Q917.19 783.958 916.993 784.45Q916.795 784.942 916.573 785.423Q916.351 785.904 916.104 786.373Q915.857 786.842 915.586 787.298Q915.316 787.754 915.022 788.195Q914.728 788.636 914.411 789.061Q914.095 789.486 913.757 789.894Q913.418 790.302 913.06 790.693Q912.701 791.083 912.323 791.454Q911.944 791.825 911.547 792.176Q911.15 792.527 910.735 792.857C906.146 796.54 900.411 798.172 894.585 797.314C889.039 796.497 882.975 793.74 878.949 789.805C870.965 779.643 862.972 769.514 854.444 759.799L851.547 756.582C842.865 746.441 835.073 735.387 825.938 725.683C823.571 730.976 820.866 734.856 815.228 737.033C809.785 739.135 803.762 739.102 798.341 741.347C791.344 744.244 786.216 749.692 778.768 751.87L778.137 751.54C774.643 749.687 771.469 746.865 767.852 745.38C754.068 739.722 742.785 739.611 731.292 727.531C728.088 724.712 725.251 721.788 722.672 718.379C713.767 706.605 706.955 689.617 708.966 674.672C705.437 673.07 701.982 671.295 698.512 669.571L695.134 667.631C693.131 665.704 690.312 664.033 688.057 662.357C687.036 661.261 685.844 660.344 684.697 659.383C668.056 641.742 658.477 623.539 657.46 598.899L657.489 595.001C657.485 594.5 657.491 594 657.509 593.5C658.404 568.058 669.884 547.991 688.156 530.964L691.858 528.102C706.108 516.592 723.131 511.91 741.134 511.309Z"/>
	<path fill="white" transform="scale(1.01189 1.01189)" d="M893.91 768.047C895.935 767.878 897.841 767.698 899.781 768.429C902.534 769.466 904.91 771.676 906.034 774.406C906.94 776.608 906.953 779.024 905.99 781.21C904.75 784.026 902.396 785.072 899.696 786.175C897.7 786.462 895.375 786.799 893.418 786.169Q892.998 786.033 892.594 785.856Q892.19 785.678 891.806 785.462Q891.421 785.245 891.06 784.991Q890.7 784.737 890.366 784.448Q890.032 784.16 889.729 783.839Q889.425 783.519 889.156 783.169Q888.886 782.82 888.652 782.446Q888.418 782.072 888.223 781.676C887.103 779.387 887.01 776.621 887.899 774.24C889.041 771.184 891.064 769.461 893.91 768.047Z"/>
	<path fill="#7C3AED" transform="scale(1.01189 1.01189)" d="M824.89 623.354C837.191 632.292 846.748 647.163 849.075 662.231Q849.516 664.955 849.673 667.71Q849.829 670.465 849.699 673.222Q849.569 675.978 849.154 678.706Q848.738 681.435 848.042 684.105Q846.924 682.657 845.728 681.273C833.887 667.643 819.945 659.017 801.833 657.737C812.16 648.069 819.695 636.443 824.89 623.354Z"/>
	<path fill="#7C3AED" transform="scale(1.01189 1.01189)" d="M708.966 674.672C731.216 683.342 754.579 684.778 776.788 675.002Q781.432 673.004 785.744 670.366Q790.057 667.728 793.95 664.503C795.348 678.826 798.205 689.701 805.456 702.288C794.627 695.719 782.724 694.023 770.399 697.1C756.262 700.629 740.42 711.066 733.048 723.858C732.37 725.033 731.824 726.284 731.292 727.531C728.088 724.712 725.251 721.788 722.672 718.379C713.767 706.605 706.955 689.617 708.966 674.672Z"/>
	<path fill="white" transform="scale(1.01189 1.01189)" d="M731.292 727.531C731.824 726.284 732.37 725.033 733.048 723.858C740.42 711.066 756.262 700.629 770.399 697.1C782.724 694.023 794.627 695.719 805.456 702.288C812.004 710.23 818.916 718.157 825.938 725.683C823.571 730.976 820.866 734.856 815.228 737.033C809.785 739.135 803.762 739.102 798.341 741.347C791.344 744.244 786.216 749.692 778.768 751.87L778.137 751.54C774.643 749.687 771.469 746.865 767.852 745.38C754.068 739.722 742.785 739.611 731.292 727.531Z"/>
	<path fill="#FBBF24" transform="scale(1.01189 1.01189)" d="M738.804 515.711C757.514 513.879 778.935 520.242 793.764 531.692C810.731 544.793 821.846 563.617 824.422 584.988C827.143 607.559 820.55 628.467 806.597 646.215C792.165 664.573 772.996 674.122 750.125 676.951C728.792 678.028 707.428 672.389 690.898 658.436Q690.12 657.781 689.358 657.106Q688.596 656.432 687.852 655.739Q687.107 655.046 686.38 654.334Q685.653 653.623 684.944 652.893Q684.234 652.164 683.544 651.417Q682.853 650.67 682.181 649.906Q681.509 649.143 680.856 648.362Q680.204 647.582 679.57 646.786Q678.937 645.989 678.324 645.177Q677.711 644.366 677.119 643.539Q676.526 642.712 675.954 641.871Q675.382 641.029 674.831 640.174Q674.281 639.319 673.751 638.45Q673.222 637.581 672.715 636.699Q672.207 635.818 671.722 634.923Q671.236 634.029 670.773 633.124Q670.311 632.218 669.87 631.301Q669.43 630.383 669.013 629.456Q668.596 628.528 668.202 627.59Q667.808 626.652 667.437 625.705Q667.067 624.757 666.72 623.801Q666.373 622.844 666.05 621.88Q665.727 620.915 665.428 619.942Q665.13 618.97 664.855 617.99Q664.581 617.011 664.331 616.024Q664.081 615.038 663.856 614.046Q663.63 613.054 663.43 612.057Q663.229 611.06 663.054 610.058Q662.878 609.056 662.727 608.049Q662.577 607.043 662.451 606.034Q662.326 605.024 662.225 604.012Q662.125 603 662.05 601.985C660.456 580.861 668.01 559.633 681.75 543.657C696.44 526.573 716.525 517.401 738.804 515.711Z"/>
	<path fill="white" transform="scale(1.01189 1.01189)" d="M168.921 354.055C169.585 353.23 170.245 352.4 170.974 351.63C173.296 349.179 176.623 348.258 179.921 348.166C186.006 347.996 192.187 348.323 198.287 348.318L244.701 348.323L369.406 348.449L453.477 348.499C468.184 348.477 483.473 347.594 498.124 348.594C500.622 348.764 502.974 349.759 504.774 351.523C506.373 353.09 507.469 355.074 507.753 357.301C508.411 362.453 508.068 367.905 508.053 373.089L507.979 400.866L507.757 506.6L688.107 506.569L688.403 410.277C688.405 392.691 687.499 374.047 688.178 356.669C688.248 354.881 688.249 352.092 689.519 350.691L690.311 351.198C691.113 353.014 691.489 354.662 691.641 356.648C691.968 360.946 691.67 365.47 691.71 369.797L691.861 402.136L691.568 506.494L800.496 506.472C816.169 506.481 831.893 506.188 847.56 506.396C849.918 506.427 853.442 506.394 855.151 508.136L854.569 508.939C852.766 509.687 851.111 510.025 849.157 510.153C838.093 510.88 826.549 510.155 815.412 510.18Q782.894 510.44 750.377 510.132C730.838 509.781 711.253 510.352 691.699 510.211L691.858 528.102L688.156 530.964C687.804 524.046 688.001 517.041 688 510.112L507.814 510.075C507.898 522.638 508.554 535.544 507.952 548.072C507.766 551.947 506.588 556.419 503.51 559.035C501.302 560.912 495.54 561.145 492.652 561.216C472.313 561.714 451.772 560.933 431.406 560.984L279.473 561.081L213.143 560.961C202.233 560.996 188.911 562.063 178.348 560.769C174.797 560.334 171.925 558.34 169.838 555.48C168.609 553.795 167.804 551.813 167.649 549.731C166.91 539.81 167.586 529.413 167.689 519.447L167.991 465.903L167.963 392.036C167.975 380.285 166.809 365.479 168.921 354.055Z"/>
	<path fill="#7C3AED" transform="scale(1.01189 1.01189)" d="M456.062 414.805C457.849 414.01 459.425 413.536 461.357 413.23C442.234 431.376 424.011 450.431 405.201 468.89L404.219 469.752C401.253 469.089 391.516 458.47 388.876 455.93C380.289 448.078 371.386 439.966 363.606 431.313L364.911 429.662C372.436 437.385 380.534 444.528 388.129 452.187C392.164 455.961 399.917 464.408 404.106 466.896C414.399 455.269 426.076 444.65 437.229 433.874C443.649 427.67 449.831 421.199 456.062 414.805Z"/>
	<path fill="#A78BFA" transform="scale(1.01189 1.01189)" d="M187.867 526.046C200.864 525.315 214.212 525.987 227.248 526.019L297.553 525.979L413.449 525.996C433.867 526.01 454.371 525.633 474.778 526.106C476.643 526.149 478.424 526.165 480.163 526.913L480.484 528.282C468.751 528.819 456.787 528.345 445.027 528.403L358.832 528.457L246.237 528.535C227.161 528.546 208.005 528.914 188.94 528.52C187.914 527.608 188.051 527.431 187.867 526.046Z"/>
	<path fill="#A78BFA" transform="scale(1.01189 1.01189)" d="M201.829 503.915C205.41 500.603 208.576 496.663 211.787 492.994C219.965 483.648 227.81 473.761 236.271 464.698L238.426 465.129C236.179 469.993 210.109 498.971 205.141 503.773C214.049 504.248 223.121 503.965 232.045 503.974L279.106 504.005L424.262 504.032C431.627 504.034 476.222 503.074 480.597 504.817C481.069 505.778 481.055 505.716 480.742 506.741C474.769 507.959 466.884 507.078 460.686 507.114L411.748 507.37C342.154 507.661 272.56 506.675 202.968 507.757C199.866 510.317 192.573 519.601 189.666 520.224L188.872 519.638C191.138 515.806 194.927 512.413 197.569 508.737L197.337 508.145C194.616 508.214 191.019 508.315 188.703 506.688C187.876 506.108 188.137 506.429 187.925 505.388C190.671 503.289 198.336 503.979 201.829 503.915Z"/>
	<path fill="#F59E0B" transform="scale(1.01189 1.01189)" d="M456.372 383.697C459.097 380.405 462.484 372.122 465.707 370.542C468.712 371.525 472.966 380.863 474.67 383.692C478.947 384.652 483.586 385.051 487.724 386.48C489.259 387.01 489.944 387.494 490.628 388.957C489.866 393.085 483.518 397.309 480.284 399.776C480.396 403.939 482.497 414.609 481.017 417.959C477.289 418.846 470.904 413.833 467.124 412.543C465.4 411.954 463.864 411.83 462.22 412.732C461.929 412.892 461.645 413.064 461.357 413.23C459.425 413.536 457.849 414.01 456.062 414.805C453.19 415.354 450.325 416.297 447.506 417.089C448.899 411.542 449.938 405.919 451.03 400.306C448.266 396.948 444.779 393.898 442.306 390.342C441.501 389.185 441.277 388.671 441.463 387.281C444.36 384.721 452.457 384.49 456.372 383.697Z"/>
	<path fill="#F59E0B" transform="scale(1.01189 1.01189)" d="M335.32 432.857C334.585 431.553 333.847 430.237 333.327 428.829C331.618 424.207 331.654 419.167 333.84 414.71Q334.037 414.31 334.253 413.92Q334.47 413.53 334.706 413.152Q334.943 412.774 335.198 412.408Q335.453 412.042 335.727 411.69Q336 411.337 336.291 410.999Q336.582 410.661 336.89 410.339Q337.198 410.016 337.522 409.709Q337.845 409.403 338.184 409.113Q338.523 408.823 338.877 408.551Q339.23 408.278 339.597 408.024Q339.963 407.771 340.343 407.536Q340.722 407.301 341.112 407.085Q341.503 406.87 341.904 406.675Q342.305 406.479 342.715 406.305Q343.126 406.13 343.544 405.977Q343.963 405.823 344.389 405.691Q344.811 405.559 345.24 405.449Q345.669 405.339 346.102 405.251Q346.536 405.163 346.974 405.097Q347.411 405.031 347.852 404.987Q348.292 404.944 348.734 404.922Q349.176 404.901 349.619 404.903Q350.061 404.904 350.503 404.928Q350.945 404.953 351.385 404.999Q351.825 405.046 352.263 405.115Q352.7 405.183 353.133 405.275Q353.566 405.366 353.994 405.479Q354.422 405.592 354.843 405.726Q355.265 405.861 355.679 406.017Q356.093 406.173 356.499 406.35Q356.904 406.527 357.3 406.724Q357.696 406.922 358.082 407.139C362.266 409.541 365.187 413.824 366.226 418.508C366.954 421.791 366.692 426.77 364.911 429.662L363.606 431.313C360.065 435.738 356.375 439.486 350.387 440.061C344.873 440.59 340.606 437.996 336.625 434.531C322.931 449.843 308.309 464.234 294.39 479.326C285.359 471.13 274.804 464.559 265.984 456.109C263.996 460.88 260.869 465.353 255.876 467.318C250.348 469.493 245.007 467.897 239.882 465.484L239.011 465.067L238.426 465.129L236.271 464.698C236.513 464.286 236.895 463.567 236.698 463.039C235.326 459.365 233.034 458.109 232.388 453.297Q232.329 452.858 232.292 452.416Q232.255 451.975 232.241 451.531Q232.227 451.089 232.236 450.645Q232.244 450.202 232.276 449.76Q232.307 449.318 232.361 448.878Q232.415 448.438 232.491 448.002Q232.568 447.565 232.666 447.133Q232.765 446.701 232.885 446.275Q233.006 445.848 233.148 445.428Q233.29 445.009 233.454 444.597Q233.617 444.185 233.802 443.782Q233.986 443.379 234.191 442.986Q234.396 442.593 234.62 442.211Q234.845 441.829 235.089 441.458Q235.333 441.088 235.595 440.731Q235.858 440.374 236.138 440.031Q236.423 439.687 236.725 439.357Q237.026 439.028 237.345 438.715Q237.663 438.401 237.996 438.104Q238.33 437.807 238.679 437.528Q239.027 437.248 239.389 436.986Q239.751 436.725 240.126 436.482Q240.501 436.239 240.888 436.016Q241.275 435.793 241.672 435.589Q242.07 435.386 242.478 435.203Q242.885 435.02 243.301 434.858Q243.718 434.696 244.142 434.555Q244.566 434.414 244.996 434.295Q245.427 434.177 245.863 434.08Q246.299 433.983 246.74 433.908Q247.18 433.834 247.624 433.782Q248.067 433.729 248.513 433.7C252.893 433.39 257.082 434.739 260.333 437.719C265.486 442.443 266.043 447.874 266.235 454.419C275.993 460.809 284.991 468.829 294.083 476.151C308.316 462.199 321.647 447.347 335.32 432.857Z"/>
	<path fill="#FBBF24" transform="scale(1.01189 1.01189)" d="M167.722 595.299C220.439 594.346 273.273 595.398 326 595.362L657.489 595.001L657.46 598.899C658.477 623.539 668.056 641.742 684.697 659.383C685.844 660.344 687.036 661.261 688.057 662.357C690.312 664.033 693.131 665.704 695.134 667.631L698.512 669.571C701.982 671.295 705.437 673.07 708.966 674.672C706.955 689.617 713.767 706.605 722.672 718.379C725.251 721.788 728.088 724.712 731.292 727.531C742.785 739.611 754.068 739.722 767.852 745.38C771.469 746.865 774.643 749.687 778.137 751.54L778.768 751.87C786.216 749.692 791.344 744.244 798.341 741.347C803.762 739.102 809.785 739.135 815.228 737.033C820.866 734.856 823.571 730.976 825.938 725.683C835.073 735.387 842.865 746.441 851.547 756.582L854.444 759.799C862.972 769.514 870.965 779.643 878.949 789.805C877.439 794.312 876.699 798.944 875.923 803.622C854.921 802.767 833.658 803.494 812.615 803.483L689.024 803.491L309.848 803.893L206.647 803.879C187.542 803.907 168.041 804.696 148.979 803.707C152.059 802.479 155.063 801.154 157.741 799.173C170.069 790.051 173.733 772.652 176.028 758.443C176.365 757.015 176.613 756.097 177.455 754.86C180.186 749.382 182.726 744.027 184.287 738.087C183.966 736.739 183.667 735.343 183.149 734.056C182.18 731.65 180.854 730.674 178.507 729.725C176.056 728.683 173.727 729.358 171.201 729.773L167.229 731.131C168.371 718.505 167.467 701.953 167.495 688.934L167.722 595.299Z"/>
	<path fill="white" transform="scale(1.01189 1.01189)" d="M177.455 754.86L271.058 754.708L301.528 754.789C306.969 754.81 312.554 754.563 317.975 754.989C319.722 755.126 320.233 755.223 321.741 756.12C320.445 757.778 317.969 758.277 315.971 758.512C311.528 759.033 306.482 758.407 301.974 758.398L269.07 758.392L210.717 758.499C199.178 758.537 187.557 758.825 176.028 758.443C176.365 757.015 176.613 756.097 177.455 754.86Z"/>
	<path fill="white" transform="scale(1.01189 1.01189)" d="M695.134 667.631L698.512 669.571C698.219 698.353 698.969 727.122 698.929 755.899L851.547 756.582L854.444 759.799C845.397 760.25 836.249 759.977 827.187 759.956L771.711 759.549L723.069 759.467C713.724 759.464 704.298 759.715 694.967 759.23C693.657 746.923 694.663 731.868 694.699 719.21C694.748 702.138 693.929 684.632 695.134 667.631Z"/>
	<path fill="white" transform="scale(1.01189 1.01189)" d="M684.697 659.383C685.844 660.344 687.036 661.261 688.057 662.357L687.877 724.574C687.806 736.008 687.974 747.523 687.445 758.942C687.172 758.981 686.9 759.022 686.627 759.058C680.275 759.891 673.325 759.404 666.916 759.407L628.868 759.404C592.977 759.394 556.962 760.135 521.089 759.541C519.594 759.517 518.068 759.486 516.845 758.536C514.809 751.421 515.986 734.325 516.002 726.336C516.029 712.643 516.546 698.808 516.189 685.131C516.113 682.204 515.623 679.297 515.511 676.381C515.482 675.602 515.769 675.066 516.283 674.503C517.132 673.572 517.212 673.375 518.464 673.304C518.582 673.411 518.712 673.504 518.816 673.624C519.926 674.899 520.157 676.974 520.255 678.593C520.728 686.344 520.055 694.639 520.033 702.455L519.991 755.672C537.154 755.285 554.398 755.564 571.571 755.537L684.013 755.585L684.302 694.761C684.365 683.038 683.953 671.072 684.697 659.383Z"/>
	<path fill="#FBBF24" transform="scale(1.01189 1.01189)" d="M698.512 669.571C701.982 671.295 705.437 673.07 708.966 674.672C706.955 689.617 713.767 706.605 722.672 718.379C725.251 721.788 728.088 724.712 731.292 727.531C742.785 739.611 754.068 739.722 767.852 745.38C771.469 746.865 774.643 749.687 778.137 751.54L778.768 751.87C786.216 749.692 791.344 744.244 798.341 741.347C803.762 739.102 809.785 739.135 815.228 737.033C820.866 734.856 823.571 730.976 825.938 725.683C835.073 735.387 842.865 746.441 851.547 756.582L698.929 755.899C698.969 727.122 698.219 698.353 698.512 669.571Z"/>
	<path fill="#7C3AED" transform="scale(1.01189 1.01189)" d="M552.259 725.539C537.967 711.483 530.082 696.678 529.92 676.31C529.77 657.515 536.965 641.374 550.096 628.016C563.349 614.536 580.348 607.982 599.086 607.879C618.52 607.773 636.386 614.463 650.325 628.32C663.897 641.812 670.135 659.55 670.106 678.433C670.08 695.184 663.974 713.852 651.775 725.775Q651.214 726.327 650.639 726.864C639.104 736.688 624.027 741.802 609.095 743.167C588.207 745.076 568.366 738.94 552.259 725.539Z"/>
	<path fill="white" transform="scale(1.01189 1.01189)" d="M601.184 638.168C605.821 638.209 609.95 639.074 613.961 641.505Q614.46 641.808 614.942 642.136Q615.425 642.464 615.89 642.816Q616.355 643.168 616.802 643.544Q617.248 643.919 617.675 644.317Q618.102 644.715 618.508 645.134Q618.913 645.553 619.297 645.993Q619.681 646.432 620.042 646.891Q620.403 647.349 620.74 647.826Q621.076 648.302 621.388 648.795Q621.701 649.288 621.987 649.797Q622.273 650.305 622.533 650.827Q622.793 651.35 623.026 651.885Q623.259 652.42 623.464 652.966Q623.669 653.512 623.846 654.068Q624.023 654.624 624.172 655.188Q624.32 655.753 624.439 656.324Q624.564 656.903 624.659 657.487Q624.754 658.071 624.819 658.66Q624.884 659.248 624.919 659.839Q624.953 660.43 624.957 661.022Q624.961 661.614 624.934 662.205Q624.908 662.797 624.851 663.386Q624.794 663.975 624.707 664.561Q624.619 665.146 624.502 665.726Q624.385 666.307 624.237 666.88Q624.09 667.453 623.914 668.018Q623.737 668.584 623.532 669.139Q623.326 669.694 623.093 670.238Q622.859 670.782 622.597 671.313Q622.336 671.844 622.047 672.361Q621.759 672.878 621.444 673.379Q621.129 673.88 620.789 674.365C616.631 680.408 610.703 683.612 603.658 684.979C598.377 684.813 593.256 683.385 588.941 680.255C583.763 676.499 580.445 670.558 579.664 664.234Q579.598 663.66 579.561 663.084Q579.524 662.507 579.516 661.93Q579.507 661.352 579.528 660.775Q579.548 660.198 579.597 659.622Q579.646 659.046 579.724 658.474Q579.801 657.901 579.907 657.334Q580.013 656.766 580.147 656.204Q580.281 655.642 580.443 655.088Q580.605 654.533 580.794 653.987Q580.983 653.442 581.199 652.906Q581.415 652.37 581.658 651.846Q581.9 651.322 582.169 650.81Q582.437 650.298 582.73 649.801Q583.024 649.303 583.341 648.821Q583.659 648.338 584.001 647.872Q584.342 647.406 584.706 646.958C588.949 641.643 594.566 639.01 601.184 638.168Z"/>
	<path fill="white" transform="scale(1.01189 1.01189)" d="M552.259 725.539C561.67 711.701 574.71 701.503 591.414 698.374C606.614 695.526 621.742 699.319 634.391 708.062C641.245 712.8 647.129 719.246 650.639 726.864C639.104 736.688 624.027 741.802 609.095 743.167C588.207 745.076 568.366 738.94 552.259 725.539Z"/>
	<path fill="#7C3AED" transform="scale(1.01189 1.01189)" d="M197.584 725.469Q196.522 724.356 195.51 723.198Q194.499 722.039 193.539 720.837Q192.58 719.635 191.675 718.391Q190.769 717.148 189.92 715.865Q189.071 714.583 188.279 713.264Q187.487 711.946 186.755 710.593Q186.022 709.241 185.35 707.857Q184.678 706.474 184.068 705.062Q183.458 703.65 182.91 702.213Q182.363 700.775 181.88 699.315Q181.397 697.854 180.98 696.374Q180.562 694.894 180.21 693.397Q179.858 691.899 179.573 690.388Q179.287 688.876 179.069 687.354Q178.851 685.831 178.7 684.301Q178.55 682.77 178.467 681.234C177.573 662.986 184.734 645.231 197.032 631.869C210.13 617.637 227.254 609.613 246.575 608.95C265.6 608.298 282.995 614.993 296.915 628.015C309.869 640.134 317.747 658.024 318.274 675.738C318.779 692.733 312.032 712.278 300.233 724.673C288.855 737.979 271.573 746.021 254.244 747.426Q252.523 747.581 250.796 747.65Q249.069 747.719 247.341 747.702Q245.613 747.684 243.888 747.58Q242.163 747.476 240.445 747.285Q238.727 747.095 237.021 746.819Q235.315 746.542 233.625 746.181Q231.935 745.82 230.266 745.375Q228.596 744.929 226.95 744.401Q225.305 743.872 223.688 743.262Q222.071 742.652 220.487 741.961Q218.903 741.271 217.355 740.502Q215.807 739.733 214.3 738.888Q212.793 738.042 211.33 737.122Q209.867 736.203 208.451 735.211Q207.036 734.219 205.673 733.157Q204.309 732.095 203 730.967Q200.08 728.427 197.584 725.469Z"/>
	<path transform="scale(1.01189 1.01189)" d="M245.999 641.594C250.806 641.276 255.18 641.734 259.534 643.966Q260.059 644.233 260.569 644.526Q261.08 644.82 261.574 645.139Q262.069 645.458 262.547 645.802Q263.025 646.147 263.484 646.515Q263.944 646.883 264.384 647.274Q264.824 647.665 265.243 648.078Q265.663 648.492 266.06 648.926Q266.458 649.36 266.833 649.814Q267.208 650.268 267.559 650.741Q267.91 651.213 268.237 651.703Q268.563 652.193 268.864 652.699Q269.165 653.205 269.44 653.726Q269.715 654.246 269.963 654.781Q270.21 655.315 270.43 655.861Q270.65 656.407 270.842 656.964Q271.034 657.52 271.197 658.086C272.91 664.077 271.909 670.835 268.718 676.166C265.371 681.759 260.13 684.795 253.964 686.39C248.452 687.128 243.557 687.096 238.559 684.335C233.198 681.373 229.054 675.94 227.579 670.001Q227.442 669.424 227.332 668.841Q227.223 668.259 227.143 667.671Q227.062 667.084 227.01 666.493Q226.958 665.902 226.936 665.31Q226.913 664.717 226.919 664.124Q226.925 663.531 226.96 662.94Q226.995 662.348 227.059 661.758Q227.122 661.169 227.215 660.583Q227.308 659.997 227.429 659.417Q227.55 658.836 227.699 658.263Q227.848 657.689 228.025 657.123Q228.202 656.557 228.407 656Q228.611 655.444 228.842 654.898Q229.074 654.352 229.332 653.818Q229.589 653.284 229.873 652.763Q230.156 652.242 230.465 651.736C234.104 645.847 239.52 643.192 245.999 641.594Z"/>
	<path transform="scale(1.01189 1.01189)" d="M197.584 725.469C201.474 720.049 205.35 714.398 210.414 709.992C223.336 698.75 240.773 696.813 257.233 697.941C269.325 698.77 282.149 704.033 290.594 712.873C294.095 716.538 296.911 720.836 300.233 724.673C288.855 737.979 271.573 746.021 254.244 747.426Q252.523 747.581 250.796 747.65Q249.069 747.719 247.341 747.702Q245.613 747.684 243.888 747.58Q242.163 747.476 240.445 747.285Q238.727 747.095 237.021 746.819Q235.315 746.542 233.625 746.181Q231.935 745.82 230.266 745.375Q228.596 744.929 226.95 744.401Q225.305 743.872 223.688 743.262Q222.071 742.652 220.487 741.961Q218.903 741.271 217.355 740.502Q215.807 739.733 214.3 738.888Q212.793 738.042 211.33 737.122Q209.867 736.203 208.451 735.211Q207.036 734.219 205.673 733.157Q204.309 732.095 203 730.967Q200.08 728.427 197.584 725.469Z"/>
	<path fill="white" transform="scale(1.01189 1.01189)" d="M167.722 595.299C220.439 594.346 273.273 595.398 326 595.362L657.489 595.001L657.46 598.899Q605.086 599.16 552.714 598.706C538.467 598.619 524.081 599.278 509.864 598.662C509.091 635.924 509.739 673.367 509.687 710.648C509.67 723.541 511.306 748.284 508.382 759.391Q421.947 759.75 335.517 758.639L335.384 599.076L171.334 599.05L171.356 685.446C171.339 700.149 171.833 715.094 171.201 729.773L167.229 731.131C168.371 718.505 167.467 701.953 167.495 688.934L167.722 595.299Z"/>
	<path fill="#FBBF24" transform="scale(1.01189 1.01189)" d="M338.941 599.091C358.427 599.677 378.028 599.123 397.526 599.091L505.137 598.962C506.056 599.774 505.889 600.071 505.964 601.242C506.228 605.388 505.924 609.7 505.921 613.865L505.922 642.425L505.939 725.025C505.939 730.756 506.778 751.305 505.574 755.167L505.19 755.396C488.58 756.08 471.744 755.488 455.108 755.474L338.999 755.007Q339.368 677.049 338.941 599.091Z"/>
	<path fill="#F59E0B" transform="scale(1.01189 1.01189)" d="M375.063 725.605L374.369 725.882C373.813 725.695 373.755 725.709 373.188 725.325C371.288 724.043 369.589 721.298 368.26 719.461C361.235 709.753 356.386 699.688 354.724 687.708Q354.483 686.071 354.324 684.424Q354.165 682.777 354.089 681.125Q354.012 679.472 354.019 677.817Q354.026 676.163 354.115 674.51Q354.205 672.858 354.377 671.213Q354.549 669.567 354.804 667.932Q355.058 666.297 355.394 664.677Q355.73 663.057 356.147 661.456Q356.564 659.855 357.06 658.277Q357.557 656.698 358.132 655.147Q358.707 653.595 359.359 652.075Q360.011 650.554 360.738 649.068Q361.465 647.582 362.266 646.134Q363.067 644.686 363.939 643.28Q364.812 641.874 365.754 640.514Q366.695 639.154 367.704 637.842C379.386 622.509 394.813 612.767 413.987 610.178C431.574 607.804 450.747 612.083 464.907 623.003C479.463 634.227 488.751 649.675 490.957 667.964C492.681 682.251 490.86 697.663 483.146 710.079C480.02 715.112 475.979 719.673 472.312 724.324C465.218 734.707 448.627 742.021 436.683 744.323C419.978 747.543 401.171 744.118 387.088 734.395C383.016 731.584 379.296 728.155 375.063 725.605Z"/>
	<path fill="white" transform="scale(1.01189 1.01189)" d="M421.889 637.66C426.722 637.287 431.495 638.055 435.731 640.514C440.785 643.45 444.228 648.471 445.651 654.092Q445.8 654.666 445.92 655.248Q446.039 655.829 446.129 656.416Q446.219 657.002 446.279 657.593Q446.339 658.183 446.368 658.776Q446.398 659.369 446.397 659.962Q446.396 660.555 446.365 661.148Q446.334 661.741 446.272 662.331Q446.211 662.921 446.12 663.508Q446.028 664.094 445.907 664.675Q445.786 665.256 445.635 665.83Q445.484 666.404 445.304 666.97Q445.124 667.535 444.916 668.091Q444.707 668.646 444.471 669.191Q444.234 669.735 443.97 670.266Q443.706 670.798 443.415 671.315Q443.124 671.832 442.807 672.334C438.878 678.514 433.163 681.293 426.245 682.779C420.657 683.291 415.174 682.236 410.535 678.953C405.719 675.545 402.467 670.047 401.579 664.236C400.637 658.076 402.12 651.442 405.877 646.432C409.906 641.06 415.442 638.686 421.889 637.66Z"/>
	<path fill="white" transform="scale(1.01189 1.01189)" d="M375.063 725.605C376.518 719.423 389.117 708.186 394.764 704.678C407.779 696.594 422.587 693.901 437.517 697.499C452.781 701.177 464.227 711.136 472.312 724.324C465.218 734.707 448.627 742.021 436.683 744.323C419.978 747.543 401.171 744.118 387.088 734.395C383.016 731.584 379.296 728.155 375.063 725.605Z"/>
</svg>
